<?xml version="1.0" encoding="UTF-8" standalone="no"?>
<!-- Created with Inkscape (http://www.inkscape.org/) -->

<svg
   xmlns:dc="http://purl.org/dc/elements/1.1/"
   xmlns:cc="http://creativecommons.org/ns#"
   xmlns:rdf="http://www.w3.org/1999/02/22-rdf-syntax-ns#"
   xmlns:svg="http://www.w3.org/2000/svg"
   xmlns="http://www.w3.org/2000/svg"
   xmlns:sodipodi="http://sodipodi.sourceforge.net/DTD/sodipodi-0.dtd"
   xmlns:inkscape="http://www.inkscape.org/namespaces/inkscape"
   version="1.1"
   id="svg64"
   width="320"
   height="70.720001"
   viewBox="0 0 320 70.720001"
   sodipodi:docname="logo_main.svg"
   inkscape:version="0.92.4 (5da689c313, 2019-01-14)">
  <metadata
     id="metadata70">
    <rdf:RDF>
      <cc:Work
         rdf:about="">
        <dc:format>image/svg+xml</dc:format>
        <dc:type
           rdf:resource="http://purl.org/dc/dcmitype/StillImage" />
        <dc:title></dc:title>
      </cc:Work>
    </rdf:RDF>
  </metadata>
  <defs
     id="defs68" />
  <sodipodi:namedview
     pagecolor="#ffffff"
     bordercolor="#666666"
     borderopacity="1"
     objecttolerance="10"
     gridtolerance="10"
     guidetolerance="10"
     inkscape:pageopacity="0"
     inkscape:pageshadow="2"
     inkscape:window-width="1920"
     inkscape:window-height="1017"
     id="namedview66"
     showgrid="false"
     inkscape:pagecheckerboard="true"
     inkscape:zoom="5.0204581"
     inkscape:cx="137.64614"
     inkscape:cy="44.256406"
     inkscape:window-x="1358"
     inkscape:window-y="-8"
     inkscape:window-maximized="1"
     inkscape:current-layer="svg64" />
  <g
     id="g126"
     transform="translate(-3.1151762,-3.2025389)">
    <path
       style="fill:#fefe00;stroke-width:0.31999999"
       d="m 284.8,68.719329 c 0,-0.04437 -0.50314,-2.960371 -1.11809,-6.48 -1.27182,-7.279207 -1.26392,-7.199328 -0.7124,-7.199328 0.58017,0 11.25054,7.926461 11.36518,8.442595 0.11715,0.527427 -7.83954,5.317405 -8.83281,5.317405 -0.38603,0 -0.70188,-0.0363 -0.70188,-0.08067 z m 19.68,-4.709574 c -1.76,-0.501258 -3.812,-1.074065 -4.56,-1.2729 -0.748,-0.198838 -1.36,-0.521385 -1.36,-0.716774 0,-0.596602 8.04169,-11.14008 8.49673,-11.14008 0.23402,0 0.50382,0.126729 0.59955,0.281625 0.1515,0.24512 1.14348,11.727901 1.14366,13.238375 8e-5,0.741856 -0.50522,0.696211 -4.31994,-0.390246 z m -11.84,-7.038001 c -1.936,-1.74799 -3.55603,-3.365721 -3.60006,-3.594956 -0.0753,-0.391984 11.56731,-6.656797 12.37106,-6.656797 0.60125,0 0.41224,0.648755 -2.051,7.04 -1.32,3.424931 -2.4,6.266041 -2.4,6.313574 0,0.539821 -1.40005,-0.465437 -4.32,-3.101821 z M 16.213721,56.747054 C 16.096174,56.629508 16,55.765159 16,54.826279 v -1.707053 l 130.96,0.08039 130.96,0.08039 v 1.76 1.76 l -130.74628,0.08039 C 75.263267,56.924602 16.331267,56.864602 16.213721,56.747054 Z M 51.28,50.668071 c -0.630243,-0.25431 -0.466842,-1.434224 0.391651,-2.82807 0.731203,-1.187175 1.073306,-2.72 0.607066,-2.72 -0.110707,0 -1.19929,0.36 -2.419072,0.8 -3.835975,1.383712 -7.281888,0.817152 -7.809232,-1.283952 -0.358867,-1.429847 0.714902,-3.570512 2.497965,-4.979943 2.005584,-1.585321 5.723916,-3.391811 7.597619,-3.691177 C 54.120829,35.649409 55.04,34.662512 55.04,32.8577 c 0,-1.590315 -0.771814,-2.818471 -2.252365,-3.584093 -1.170605,-0.605344 -4.129785,-0.610931 -5.288112,-0.01 C 46.55128,29.755577 46.08,29.664971 46.08,28.990711 c 0,-1.14528 2.752026,-2.114192 5.981702,-2.105993 2.239184,0.0057 3.195351,0.443599 4.192116,1.919944 0.654227,0.969002 0.744201,1.45122 0.685753,3.675338 -0.037,1.408 0.04193,2.817364 0.175389,3.131921 0.152646,0.359769 0.05959,0.775222 -0.250858,1.12 -0.556416,0.617936 -1.732841,5.963852 -2.162771,9.82808 -0.259321,2.330822 -0.377581,2.63878 -1.320989,3.44 -1.032172,0.876608 -1.340492,0.974675 -2.100342,0.66807 z m -0.854845,-6.340806 c 2.725667,-1.35826 4.554893,-5.301501 3.123373,-6.733021 -0.703542,-0.703543 -2.667261,-0.415194 -5.340442,0.784182 -2.583363,1.159075 -4.048086,2.602931 -4.048086,3.99041 0,2.506585 3.174086,3.498771 6.265155,1.958429 z M 203.28,50.668071 c -0.63024,-0.25431 -0.46684,-1.434224 0.39165,-2.82807 0.7312,-1.187175 1.07331,-2.72 0.60707,-2.72 -0.11071,0 -1.19929,0.36 -2.41908,0.8 -3.83597,1.383712 -7.28188,0.817152 -7.80923,-1.283952 -0.35886,-1.429847 0.71491,-3.570512 2.49797,-4.979943 2.00558,-1.585321 5.72391,-3.391811 7.59762,-3.691177 1.97483,-0.31552 2.894,-1.302417 2.894,-3.107229 0,-1.590315 -0.77181,-2.818471 -2.25236,-3.584093 -1.17061,-0.605344 -4.12979,-0.610931 -5.28812,-0.01 -0.94824,0.491954 -1.41952,0.401348 -1.41952,-0.272912 0,-1.14528 2.75203,-2.114192 5.9817,-2.105993 2.23919,0.0057 3.19535,0.443599 4.19212,1.919944 0.65422,0.969002 0.7442,1.45122 0.68575,3.675338 -0.037,1.408 0.0419,2.817364 0.17539,3.131921 0.15265,0.359769 0.0596,0.775222 -0.25086,1.12 -0.55641,0.617936 -1.73284,5.963852 -2.16277,9.82808 -0.25932,2.330822 -0.37758,2.63878 -1.32099,3.44 -1.03217,0.876608 -1.34049,0.974675 -2.10034,0.66807 z m -0.85484,-6.340806 c 2.72566,-1.35826 4.55489,-5.301501 3.12337,-6.733021 -0.70354,-0.703543 -2.66726,-0.415194 -5.34044,0.784182 -2.58337,1.159075 -4.04809,2.602931 -4.04809,3.99041 0,2.506585 3.17409,3.498771 6.26516,1.958429 z M 289.84,46.651226 c -3.71713,-1.631501 -4.4,-2.039485 -4.4,-2.628803 0,-0.494099 1.35257,-1.905936 4.63683,-4.840003 2.55026,-2.27833 4.85426,-4.18898 5.12,-4.245882 0.56587,-0.121174 0.60573,1.17017 0.27321,8.852586 -0.17986,4.155392 -0.28309,4.846752 -0.72,4.822102 -0.28052,-0.01584 -2.49004,-0.897827 -4.91004,-1.96 z M 130.6021,47.25073 c -0.23889,-0.287853 -0.11851,-0.866617 0.4237,-2.036912 1.11216,-2.400473 3.0542,-12.05383 3.0542,-15.181565 0,-1.610475 0.36483,-2.000797 2.48,-2.653277 0.62926,-0.194112 0.72,-0.108086 0.72,0.682589 0,0.497581 -0.49265,2.703285 -1.09478,4.901565 -1.74798,6.381619 -2.21352,9.100474 -1.98297,11.581114 0.19243,2.070403 0.16419,2.203853 -0.51938,2.454995 -1.50603,0.553309 -2.74626,0.654554 -3.08077,0.251491 z m 83.2379,0.0993 c -0.92948,-0.373606 -0.91222,-0.92416 0.0545,-1.738009 0.60836,-0.51216 1.01539,-1.612973 1.89758,-5.132019 2.037,-8.12554 3.71766,-17.475182 3.90374,-21.716843 0.0685,-1.560263 0.20742,-3.098255 0.30882,-3.41776 0.23471,-0.739496 1.82752,-1.100563 2.72831,-0.618469 0.85192,0.455931 0.75697,1.24918 -0.61202,5.113071 -0.89609,2.529141 -1.96053,8.107056 -1.61334,8.454248 0.0842,0.08419 0.76481,-0.0022 1.51249,-0.191986 2.01179,-0.510647 6.45673,0.127515 8.26359,1.186408 2.04771,1.200036 2.51826,2.09699 2.50619,4.777257 -0.0161,3.585267 -1.75207,6.19401 -6.14668,9.237133 -1.17729,0.815235 -6.01209,2.485821 -8.62945,2.981766 -0.56446,0.106954 -1.27077,0.464621 -1.5696,0.794819 -0.58306,0.644276 -1.44999,0.734288 -2.60412,0.270384 z m 9.24818,-3.498758 c 3.92681,-1.212867 7.16005,-4.687274 7.54567,-8.108493 0.3671,-3.256934 -2.63314,-5.639824 -7.11385,-5.650055 -0.704,-0.0016 -1.49117,0.130636 -1.74927,0.293873 -0.29668,0.187641 -0.61837,0.173047 -0.87469,-0.03968 -0.54231,-0.450074 -0.73059,0.09197 -2.14072,6.162794 -1.22295,5.265005 -1.3955,6.962112 -0.77132,7.586292 0.57217,0.572172 2.80613,0.465062 5.10418,-0.24473 z M 38.64,47.032474 c -0.484,-0.141417 -0.88,-0.179945 -0.88,-0.08562 0,0.09433 -0.18,0.03449 -0.4,-0.132966 -0.247731,-0.18857 -2.770851,-0.209107 -6.628107,-0.05396 -3.425458,0.137785 -6.298954,0.17967 -6.385545,0.09308 -0.08659,-0.08659 0.02709,-0.619946 0.252626,-1.185229 0.874477,-2.191782 1.706118,-5.449325 3.08087,-12.067786 0.785993,-3.784 1.575571,-7.383049 1.754617,-7.997887 0.179047,-0.614838 0.325539,-2.206038 0.325539,-3.536 0,-1.454088 0.153089,-2.571201 0.384,-2.802113 0.569636,-0.569636 2.004528,-0.465437 2.833418,0.205757 l 0.72832,0.589757 -0.681786,1.410243 c -0.374979,0.775641 -0.885565,2.34625 -1.134628,3.49025 -0.249065,1.144 -0.614791,2.728 -0.812724,3.52 -0.197933,0.792 -0.88638,3.96 -1.529881,7.040001 -0.643501,3.08 -1.319262,6.2843 -1.501691,7.120668 -0.493887,2.264285 -0.344073,2.331575 5.010972,2.250733 2.4992,-0.03773 5.192,-0.109728 5.984,-0.16 1.25016,-0.07935 1.452544,-0.0036 1.535158,0.574429 0.05234,0.366205 -0.163664,0.962368 -0.48,1.3248 -0.453795,0.519923 -0.760844,0.604714 -1.455158,0.401843 z m 22.16,0.100883 c -0.650083,-0.256406 -0.949238,-0.75582 -0.955101,-1.59447 -0.0069,-0.986342 0.463875,-1.163866 1.569811,-0.591965 1.282538,0.663229 4.073719,0.628743 5.457133,-0.06742 1.593949,-0.802109 3.033613,-2.991236 3.033613,-4.612855 0,-1.595798 -0.949693,-2.465424 -3.813862,-3.49232 C 63.959366,36.009857 62.4,34.625808 62.4,33.497783 c 0,-1.047712 1.470429,-3.798486 2.382019,-4.456115 C 65.902326,28.23347 68.943072,27.52 71.267232,27.52 c 1.889187,0 2.012768,0.04536 2.012768,0.738839 0,0.406361 -0.189933,0.998586 -0.42207,1.316056 -0.403828,0.552264 -0.482384,0.54645 -1.817156,-0.1345 -1.462105,-0.74591 -3.419635,-0.739558 -4.8308,0.01568 -0.822928,0.440418 -1.887225,2.176555 -1.888777,3.081072 -0.0019,1.064624 0.711961,1.568093 3.574883,2.521533 3.340672,1.112548 4.106272,1.83888 4.096893,3.886781 -0.0039,0.844 -0.283661,2.143939 -0.621767,2.888759 -0.872243,1.921484 -3.224611,4.097516 -5.055622,4.676649 -1.749338,0.553299 -4.814061,0.899187 -5.515584,0.622493 z m 19.84,-0.43334 c -4.15232,-1.080893 -5.28,-2.363092 -5.28,-6.003482 0,-2.09752 0.148954,-2.770966 1.019194,-4.608 2.033046,-4.291657 5.790163,-7.232306 10.183526,-7.970521 2.278784,-0.382904 2.537805,-0.367528 3.618243,0.214779 1.516877,0.817527 1.968557,1.78462 1.97432,4.227207 0.0073,3.086052 -0.218157,3.213658 -5.350067,3.028346 -5.415994,-0.195568 -7.619875,0.07722 -8.60815,1.065501 C 77.542269,37.308641 77.44,37.719741 77.44,39.697069 c 0,2.165594 0.05485,2.337658 1.04,3.262746 2.117821,1.988698 4.387824,2.491987 8.4,1.862387 0.88,-0.138089 1.852,-0.358982 2.16,-0.490873 0.889174,-0.380759 0.720528,1.297235 -0.225456,2.243216 -0.70353,0.703532 -1.045638,0.783619 -3.28,0.767836 C 84.15192,47.332621 81.970224,47.046285 80.64,46.700017 Z M 89.225731,33.729994 C 90.276378,32.994093 90.099779,30.876641 88.91423,29.995068 87.630416,29.040422 85.255859,29.144201 83.535626,30.230136 81.961533,31.223818 79.36,33.5481 79.36,33.960756 c 0,0.153584 2.055958,0.279244 4.568797,0.279244 3.662713,0 4.713203,-0.101145 5.296934,-0.510006 z M 190.64,47.032474 c -0.484,-0.141417 -0.88,-0.179945 -0.88,-0.08562 0,0.09433 -0.18,0.03449 -0.4,-0.132966 -0.24773,-0.18857 -2.77085,-0.209107 -6.62811,-0.05396 -3.42545,0.137785 -6.29895,0.17967 -6.38554,0.09308 -0.0866,-0.08659 0.0271,-0.619946 0.25262,-1.185229 0.87448,-2.191782 1.70612,-5.449325 3.08087,-12.067786 0.786,-3.784 1.57557,-7.383049 1.75462,-7.997887 0.17905,-0.614838 0.32554,-2.206038 0.32554,-3.536 0,-1.454088 0.15309,-2.571201 0.384,-2.802113 0.56964,-0.569636 2.00453,-0.465437 2.83342,0.205757 l 0.72832,0.589757 -0.68179,1.410243 c -0.37498,0.775634 -0.88556,2.346243 -1.13463,3.490243 -0.24906,1.144 -0.61479,2.728 -0.81272,3.52 -0.19793,0.792 -0.88638,3.96 -1.52988,7.040001 -0.6435,3.08 -1.31926,6.2843 -1.50169,7.120668 -0.49389,2.264285 -0.34407,2.331575 5.01097,2.250733 2.4992,-0.03773 5.192,-0.109728 5.984,-0.16 1.25016,-0.07935 1.45254,-0.0036 1.53516,0.574429 0.0523,0.366205 -0.16367,0.962368 -0.48,1.3248 -0.4538,0.519923 -0.76085,0.604714 -1.45516,0.401843 z m 43.92,0.100883 c -0.65008,-0.256406 -0.94924,-0.75582 -0.9551,-1.59447 -0.007,-0.986342 0.46387,-1.163866 1.56981,-0.591965 1.28254,0.663229 4.07372,0.628743 5.45713,-0.06742 1.59395,-0.802109 3.03362,-2.991236 3.03362,-4.612855 0,-1.595798 -0.9497,-2.465424 -3.81387,-3.49232 -2.13222,-0.764473 -3.69159,-2.148522 -3.69159,-3.276547 0,-1.047712 1.47043,-3.798486 2.38202,-4.456115 1.12031,-0.808198 4.16105,-1.521668 6.48521,-1.521668 1.88919,0 2.01277,0.04536 2.01277,0.738839 0,0.406361 -0.18993,0.998586 -0.42207,1.316056 -0.40383,0.552264 -0.48238,0.54645 -1.81716,-0.1345 -1.4621,-0.74591 -3.41963,-0.739558 -4.8308,0.01568 -0.82292,0.440418 -1.88722,2.176555 -1.88877,3.081072 -0.002,1.064624 0.71196,1.568093 3.57488,2.521533 3.34067,1.112548 4.10627,1.83888 4.09689,3.886781 -0.004,0.844 -0.28366,2.143939 -0.62176,2.888759 -0.87225,1.921484 -3.22461,4.097516 -5.05563,4.676649 -1.74933,0.553299 -4.81406,0.899187 -5.51558,0.622493 z M 94.829021,46.794151 c -0.268451,-0.170813 -0.166327,-0.722208 0.36952,-1.995101 0.900685,-2.139568 2.235753,-8.555526 2.729885,-13.11905 0.401526,-3.708273 0.847168,-4.48 2.587024,-4.48 1.10103,0 1.15053,0.362685 0.31108,2.279323 -0.69633,1.58986 -1.49301,5.320866 -1.198952,5.614924 0.107081,0.107078 0.842442,-0.525763 1.634142,-1.40632 1.4593,-1.623098 3.43459,-2.71478 5.66163,-3.129016 1.5739,-0.29275 1.76415,0.181254 0.7113,1.772216 -0.70297,1.062265 -0.99603,1.270576 -1.53196,1.088921 -0.36448,-0.123542 -1.05367,-0.226515 -1.53153,-0.228825 -3.00514,-0.01453 -7.08701,7.02473 -6.525957,11.254157 0.205581,1.549744 0.178515,1.626605 -0.740019,2.101597 -1.032698,0.534028 -1.89073,0.61968 -2.476163,0.247174 z m 14.610979,0.0032 c 0,-0.156477 0.34715,-1.444323 0.77144,-2.861882 1.3598,-4.543056 4.40089,-19.038694 4.61826,-22.013333 l 0.2103,-2.877993 1.12,-0.529599 c 0.616,-0.291279 1.25469,-0.447218 1.41931,-0.34653 0.16462,0.100688 1.70157,0.364661 3.41543,0.586605 3.55435,0.460287 4.86778,1.016596 5.55984,2.354907 1.19221,2.305473 0.16098,4.965088 -2.99591,7.726655 l -1.66367,1.455345 1.29428,0.583639 c 3.90332,1.760154 4.91515,5.374576 2.66296,9.51258 -1.67766,3.082416 -4.73613,5.101363 -9.13404,6.02952 -2.76978,0.58455 -7.2782,0.819952 -7.2782,0.380022 z m 7.52,-1.265888 c 3.46147,-0.662669 6.89,-4.10217 7.66575,-7.690291 0.6354,-2.938893 -2.61923,-6.090584 -5.98964,-5.800205 -0.57493,0.04953 -1.22454,-0.0207 -1.44358,-0.156077 -0.65703,-0.406063 -1.58338,0.08004 -1.91676,1.005814 -0.28457,0.79026 -0.58248,2.063216 -1.85103,7.909361 -0.22914,1.056 -0.49888,2.517827 -0.59942,3.248508 -0.18085,1.314237 -0.16993,1.33192 1.01593,1.646288 0.65931,0.174778 1.41475,0.250868 1.67875,0.169082 0.264,-0.08178 0.912,-0.231402 1.44,-0.33248 z m 1.92321,-15.598789 c 3.05805,-0.796521 5.27204,-3.259543 5.27515,-5.868501 0.003,-2.117087 -0.67934,-3.119998 -2.54182,-3.738613 -2.29748,-0.763168 -3.25893,-0.568265 -3.91926,0.79444 -0.58463,1.206498 -1.94585,8.557808 -1.66789,9.007547 0.23523,0.380621 0.78944,0.342765 2.85382,-0.194937 z M 145.44,46.733863 c -2.46073,-0.581338 -4.44384,-2.279123 -4.98244,-4.2656 -0.69059,-2.547014 1.60312,-7.990163 4.40705,-10.458285 2.61748,-2.303994 6.13605,-3.531768 10.11114,-3.528193 3.71541,0.0033 5.90904,1.187703 7.10272,3.83483 1.20889,2.680841 -0.48987,7.323776 -3.8657,10.565408 -2.14367,2.058461 -4.61255,3.40719 -6.69057,3.655011 -2.81787,0.336051 -5.1706,0.412189 -6.0822,0.196829 z m 7.62831,-2.079437 c 1.42573,-0.458352 4.25451,-3.107385 5.61437,-5.257609 2.93061,-4.633905 0.28619,-9.644373 -5.08268,-9.630314 -0.616,0.0016 -1.48,0.211161 -1.92,0.465664 -1.1907,0.68872 -1.3334,0.740199 -2.66873,0.962791 -1.55931,0.259927 -3.61934,2.118326 -4.84554,4.37126 -0.68219,1.253408 -0.94601,2.241975 -1.05609,3.957248 -0.14299,2.227971 -0.11922,2.317792 0.92906,3.511728 1.58058,1.800179 3.16192,2.406458 5.71382,2.19065 1.14811,-0.0971 2.64022,-0.354231 3.31579,-0.571418 z M 137.28,23.36 c -0.81807,-0.818074 -0.80541,-1.127851 0.0712,-1.741854 0.91453,-0.64056 1.19684,-0.62071 2.1688,0.152496 l 0.8,0.63641 -0.89784,0.796474 C 138.33662,24.166501 138.10353,24.183527 137.28,23.36 Z"
       id="path132"
       inkscape:connector-curvature="0" />
    <path
       style="fill:#fe0000;stroke-width:0.31999999"
       d="m 284.8,68.719329 c 0,-0.04437 -0.50314,-2.960371 -1.11809,-6.48 -1.27182,-7.279207 -1.26392,-7.199328 -0.7124,-7.199328 0.58017,0 11.25054,7.926461 11.36518,8.442595 0.11715,0.527427 -7.83954,5.317405 -8.83281,5.317405 -0.38603,0 -0.70188,-0.0363 -0.70188,-0.08067 z m 4.11556,-2.853875 c 1.52044,-0.910003 3.02331,-1.828368 3.3397,-2.040816 0.51036,-0.342692 0.0793,-0.750778 -3.82129,-3.617501 -2.41809,-1.777178 -4.4368,-3.190976 -4.486,-3.14177 -0.0906,0.09063 1.44029,9.317789 1.66821,10.054634 0.18202,0.58841 0.28656,0.548656 3.29938,-1.254547 z M 304.48,64.009755 c -1.76,-0.501258 -3.812,-1.074065 -4.56,-1.2729 -0.748,-0.198838 -1.36,-0.521385 -1.36,-0.716774 0,-0.596602 8.04169,-11.14008 8.49673,-11.14008 0.23402,0 0.50382,0.126729 0.59955,0.281625 0.1515,0.24512 1.14348,11.727901 1.14366,13.238375 8e-5,0.741856 -0.50522,0.696211 -4.31994,-0.390246 z m 3.24026,-1.209754 c -0.0938,-0.484 -0.268,-2.595479 -0.38705,-4.69217 -0.34785,-6.126006 -0.12323,-6.06896 -3.9304,-0.998205 -1.81137,2.412551 -3.24602,4.429732 -3.1881,4.482624 0.16922,0.15456 6.78303,2.036775 7.25072,2.063469 0.29499,0.01683 0.37312,-0.245513 0.25483,-0.855718 z M 292.64,56.971754 c -1.936,-1.74799 -3.55603,-3.365721 -3.60006,-3.594956 -0.0753,-0.391984 11.56731,-6.656797 12.37106,-6.656797 0.60125,0 0.41224,0.648755 -2.051,7.04 -1.32,3.424931 -2.4,6.266041 -2.4,6.313574 0,0.539821 -1.40005,-0.465437 -4.32,-3.101821 z M 16.213721,56.747054 C 16.096174,56.629508 16,55.765159 16,54.826279 v -1.707053 l 130.96,0.08039 130.96,0.08039 v 1.76 1.76 l -130.74628,0.08039 C 75.263267,56.924602 16.331267,56.864602 16.213721,56.747054 Z M 51.28,50.668071 c -0.630243,-0.25431 -0.466842,-1.434224 0.391651,-2.82807 0.731203,-1.187175 1.073306,-2.72 0.607066,-2.72 -0.110707,0 -1.19929,0.36 -2.419072,0.8 -3.835975,1.383712 -7.281888,0.817152 -7.809232,-1.283952 -0.358867,-1.429847 0.714902,-3.570512 2.497965,-4.979943 2.005584,-1.585321 5.723916,-3.391811 7.597619,-3.691177 C 54.120829,35.649409 55.04,34.662512 55.04,32.8577 c 0,-1.590315 -0.771814,-2.818471 -2.252365,-3.584093 -1.170605,-0.605344 -4.129785,-0.610931 -5.288112,-0.01 C 46.55128,29.755577 46.08,29.664971 46.08,28.990711 c 0,-1.14528 2.752026,-2.114192 5.981702,-2.105993 2.239184,0.0057 3.195351,0.443599 4.192116,1.919944 0.654227,0.969002 0.744201,1.45122 0.685753,3.675338 -0.037,1.408 0.04193,2.817364 0.175389,3.131921 0.152646,0.359769 0.05959,0.775222 -0.250858,1.12 -0.556416,0.617936 -1.732841,5.963852 -2.162771,9.82808 -0.259321,2.330822 -0.377581,2.63878 -1.320989,3.44 -1.032172,0.876608 -1.340492,0.974675 -2.100342,0.66807 z m -0.854845,-6.340806 c 2.725667,-1.35826 4.554893,-5.301501 3.123373,-6.733021 -0.703542,-0.703543 -2.667261,-0.415194 -5.340442,0.784182 -2.583363,1.159075 -4.048086,2.602931 -4.048086,3.99041 0,2.506585 3.174086,3.498771 6.265155,1.958429 z M 203.28,50.668071 c -0.63024,-0.25431 -0.46684,-1.434224 0.39165,-2.82807 0.7312,-1.187175 1.07331,-2.72 0.60707,-2.72 -0.11071,0 -1.19929,0.36 -2.41908,0.8 -3.83597,1.383712 -7.28188,0.817152 -7.80923,-1.283952 -0.35886,-1.429847 0.71491,-3.570512 2.49797,-4.979943 2.00558,-1.585321 5.72391,-3.391811 7.59762,-3.691177 1.97483,-0.31552 2.894,-1.302417 2.894,-3.107229 0,-1.590315 -0.77181,-2.818471 -2.25236,-3.584093 -1.17061,-0.605344 -4.12979,-0.610931 -5.28812,-0.01 -0.94824,0.491954 -1.41952,0.401348 -1.41952,-0.272912 0,-1.14528 2.75203,-2.114192 5.9817,-2.105993 2.23919,0.0057 3.19535,0.443599 4.19212,1.919944 0.65422,0.969002 0.7442,1.45122 0.68575,3.675338 -0.037,1.408 0.0419,2.817364 0.17539,3.131921 0.15265,0.359769 0.0596,0.775222 -0.25086,1.12 -0.55641,0.617936 -1.73284,5.963852 -2.16277,9.82808 -0.25932,2.330822 -0.37758,2.63878 -1.32099,3.44 -1.03217,0.876608 -1.34049,0.974675 -2.10034,0.66807 z m -0.85484,-6.340806 c 2.72566,-1.35826 4.55489,-5.301501 3.12337,-6.733021 -0.70354,-0.703543 -2.66726,-0.415194 -5.34044,0.784182 -2.58337,1.159075 -4.04809,2.602931 -4.04809,3.99041 0,2.506585 3.17409,3.498771 6.26516,1.958429 z M 289.84,46.651226 c -3.71713,-1.631501 -4.4,-2.039485 -4.4,-2.628803 0,-0.494099 1.35257,-1.905936 4.63683,-4.840003 2.55026,-2.27833 4.85426,-4.18898 5.12,-4.245882 0.56587,-0.121174 0.60573,1.17017 0.27321,8.852586 -0.17986,4.155392 -0.28309,4.846752 -0.72,4.822102 -0.28052,-0.01584 -2.49004,-0.897827 -4.91004,-1.96 z m 4.80284,-8.718067 -0.0828,-1.266845 -3.84,3.463795 c -2.112,1.905088 -3.88005,3.567335 -3.92901,3.693882 -0.049,0.126547 1.60704,0.951526 3.68,1.833283 l 3.76901,1.6032 0.24284,-4.030237 c 0.13356,-2.21663 0.20556,-4.600316 0.16,-5.297078 z M 130.6021,47.25073 c -0.23889,-0.287853 -0.11851,-0.866617 0.4237,-2.036912 1.11216,-2.400473 3.0542,-12.05383 3.0542,-15.181565 0,-1.610475 0.36483,-2.000797 2.48,-2.653277 0.62926,-0.194112 0.72,-0.108086 0.72,0.682589 0,0.497581 -0.49265,2.703285 -1.09478,4.901565 -1.74798,6.381619 -2.21352,9.100474 -1.98297,11.581114 0.19243,2.070403 0.16419,2.203853 -0.51938,2.454995 -1.50603,0.553309 -2.74626,0.654554 -3.08077,0.251491 z m 83.2379,0.0993 c -0.92948,-0.373606 -0.91222,-0.92416 0.0545,-1.738009 0.60836,-0.51216 1.01539,-1.612973 1.89758,-5.132019 2.037,-8.12554 3.71766,-17.475182 3.90374,-21.716843 0.0685,-1.560263 0.20742,-3.098255 0.30882,-3.41776 0.23471,-0.739496 1.82752,-1.100563 2.72831,-0.618469 0.85192,0.455931 0.75697,1.24918 -0.61202,5.113071 -0.89609,2.529141 -1.96053,8.107056 -1.61334,8.454248 0.0842,0.08419 0.76481,-0.0022 1.51249,-0.191986 2.01179,-0.510647 6.45673,0.127515 8.26359,1.186408 2.04771,1.200036 2.51826,2.09699 2.50619,4.777257 -0.0161,3.585267 -1.75207,6.19401 -6.14668,9.237133 -1.17729,0.815235 -6.01209,2.485821 -8.62945,2.981766 -0.56446,0.106954 -1.27077,0.464621 -1.5696,0.794819 -0.58306,0.644276 -1.44999,0.734288 -2.60412,0.270384 z m 9.24818,-3.498758 c 3.92681,-1.212867 7.16005,-4.687274 7.54567,-8.108493 0.3671,-3.256934 -2.63314,-5.639824 -7.11385,-5.650055 -0.704,-0.0016 -1.49117,0.130636 -1.74927,0.293873 -0.29668,0.187641 -0.61837,0.173047 -0.87469,-0.03968 -0.54231,-0.450074 -0.73059,0.09197 -2.14072,6.162794 -1.22295,5.265005 -1.3955,6.962112 -0.77132,7.586292 0.57217,0.572172 2.80613,0.465062 5.10418,-0.24473 z M 38.64,47.032474 c -0.484,-0.141417 -0.88,-0.179945 -0.88,-0.08562 0,0.09433 -0.18,0.03449 -0.4,-0.132966 -0.247731,-0.18857 -2.770851,-0.209107 -6.628107,-0.05396 -3.425458,0.137785 -6.298954,0.17967 -6.385545,0.09308 -0.08659,-0.08659 0.02709,-0.619946 0.252626,-1.185229 0.874477,-2.191782 1.706118,-5.449325 3.08087,-12.067786 0.785993,-3.784 1.575571,-7.383049 1.754617,-7.997887 0.179047,-0.614838 0.325539,-2.206038 0.325539,-3.536 0,-1.454088 0.153089,-2.571201 0.384,-2.802113 0.569636,-0.569636 2.004528,-0.465437 2.833418,0.205757 l 0.72832,0.589757 -0.681786,1.410243 c -0.374979,0.775641 -0.885565,2.34625 -1.134628,3.49025 -0.249065,1.144 -0.614791,2.728 -0.812724,3.52 -0.197933,0.792 -0.88638,3.96 -1.529881,7.040001 -0.643501,3.08 -1.319262,6.2843 -1.501691,7.120668 -0.493887,2.264285 -0.344073,2.331575 5.010972,2.250733 2.4992,-0.03773 5.192,-0.109728 5.984,-0.16 1.25016,-0.07935 1.452544,-0.0036 1.535158,0.574429 0.05234,0.366205 -0.163664,0.962368 -0.48,1.3248 -0.453795,0.519923 -0.760844,0.604714 -1.455158,0.401843 z m 22.16,0.100883 c -0.650083,-0.256406 -0.949238,-0.75582 -0.955101,-1.59447 -0.0069,-0.986342 0.463875,-1.163866 1.569811,-0.591965 1.282538,0.663229 4.073719,0.628743 5.457133,-0.06742 1.593949,-0.802109 3.033613,-2.991236 3.033613,-4.612855 0,-1.595798 -0.949693,-2.465424 -3.813862,-3.49232 C 63.959366,36.009857 62.4,34.625808 62.4,33.497783 c 0,-1.047712 1.470429,-3.798486 2.382019,-4.456115 C 65.902326,28.23347 68.943072,27.52 71.267232,27.52 c 1.889187,0 2.012768,0.04536 2.012768,0.738839 0,0.406361 -0.189933,0.998586 -0.42207,1.316056 -0.403828,0.552264 -0.482384,0.54645 -1.817156,-0.1345 -1.462105,-0.74591 -3.419635,-0.739558 -4.8308,0.01568 -0.822928,0.440418 -1.887225,2.176555 -1.888777,3.081072 -0.0019,1.064624 0.711961,1.568093 3.574883,2.521533 3.340672,1.112548 4.106272,1.83888 4.096893,3.886781 -0.0039,0.844 -0.283661,2.143939 -0.621767,2.888759 -0.872243,1.921484 -3.224611,4.097516 -5.055622,4.676649 -1.749338,0.553299 -4.814061,0.899187 -5.515584,0.622493 z m 19.84,-0.43334 c -4.15232,-1.080893 -5.28,-2.363092 -5.28,-6.003482 0,-2.09752 0.148954,-2.770966 1.019194,-4.608 2.033046,-4.291657 5.790163,-7.232306 10.183526,-7.970521 2.278784,-0.382904 2.537805,-0.367528 3.618243,0.214779 1.516877,0.817527 1.968557,1.78462 1.97432,4.227207 0.0073,3.086052 -0.218157,3.213658 -5.350067,3.028346 -5.415994,-0.195568 -7.619875,0.07722 -8.60815,1.065501 C 77.542269,37.308641 77.44,37.719741 77.44,39.697069 c 0,2.165594 0.05485,2.337658 1.04,3.262746 2.117821,1.988698 4.387824,2.491987 8.4,1.862387 0.88,-0.138089 1.852,-0.358982 2.16,-0.490873 0.889174,-0.380759 0.720528,1.297235 -0.225456,2.243216 -0.70353,0.703532 -1.045638,0.783619 -3.28,0.767836 C 84.15192,47.332621 81.970224,47.046285 80.64,46.700017 Z M 89.225731,33.729994 C 90.276378,32.994093 90.099779,30.876641 88.91423,29.995068 87.630416,29.040422 85.255859,29.144201 83.535626,30.230136 81.961533,31.223818 79.36,33.5481 79.36,33.960756 c 0,0.153584 2.055958,0.279244 4.568797,0.279244 3.662713,0 4.713203,-0.101145 5.296934,-0.510006 z M 190.64,47.032474 c -0.484,-0.141417 -0.88,-0.179945 -0.88,-0.08562 0,0.09433 -0.18,0.03449 -0.4,-0.132966 -0.24773,-0.18857 -2.77085,-0.209107 -6.62811,-0.05396 -3.42545,0.137785 -6.29895,0.17967 -6.38554,0.09308 -0.0866,-0.08659 0.0271,-0.619946 0.25262,-1.185229 0.87448,-2.191782 1.70612,-5.449325 3.08087,-12.067786 0.786,-3.784 1.57557,-7.383049 1.75462,-7.997887 0.17905,-0.614838 0.32554,-2.206038 0.32554,-3.536 0,-1.454088 0.15309,-2.571201 0.384,-2.802113 0.56964,-0.569636 2.00453,-0.465437 2.83342,0.205757 l 0.72832,0.589757 -0.68179,1.410243 c -0.37498,0.775634 -0.88556,2.346243 -1.13463,3.490243 -0.24906,1.144 -0.61479,2.728 -0.81272,3.52 -0.19793,0.792 -0.88638,3.96 -1.52988,7.040001 -0.6435,3.08 -1.31926,6.2843 -1.50169,7.120668 -0.49389,2.264285 -0.34407,2.331575 5.01097,2.250733 2.4992,-0.03773 5.192,-0.109728 5.984,-0.16 1.25016,-0.07935 1.45254,-0.0036 1.53516,0.574429 0.0523,0.366205 -0.16367,0.962368 -0.48,1.3248 -0.4538,0.519923 -0.76085,0.604714 -1.45516,0.401843 z m 43.92,0.100883 c -0.65008,-0.256406 -0.94924,-0.75582 -0.9551,-1.59447 -0.007,-0.986342 0.46387,-1.163866 1.56981,-0.591965 1.28254,0.663229 4.07372,0.628743 5.45713,-0.06742 1.59395,-0.802109 3.03362,-2.991236 3.03362,-4.612855 0,-1.595798 -0.9497,-2.465424 -3.81387,-3.49232 -2.13222,-0.764473 -3.69159,-2.148522 -3.69159,-3.276547 0,-1.047712 1.47043,-3.798486 2.38202,-4.456115 1.12031,-0.808198 4.16105,-1.521668 6.48521,-1.521668 1.88919,0 2.01277,0.04536 2.01277,0.738839 0,0.406361 -0.18993,0.998586 -0.42207,1.316056 -0.40383,0.552264 -0.48238,0.54645 -1.81716,-0.1345 -1.4621,-0.74591 -3.41963,-0.739558 -4.8308,0.01568 -0.82292,0.440418 -1.88722,2.176555 -1.88877,3.081072 -0.002,1.064624 0.71196,1.568093 3.57488,2.521533 3.34067,1.112548 4.10627,1.83888 4.09689,3.886781 -0.004,0.844 -0.28366,2.143939 -0.62176,2.888759 -0.87225,1.921484 -3.22461,4.097516 -5.05563,4.676649 -1.74933,0.553299 -4.81406,0.899187 -5.51558,0.622493 z M 94.829021,46.794151 c -0.268451,-0.170813 -0.166327,-0.722208 0.36952,-1.995101 0.900685,-2.139568 2.235753,-8.555526 2.729885,-13.11905 0.401526,-3.708273 0.847168,-4.48 2.587024,-4.48 1.10103,0 1.15053,0.362685 0.31108,2.279323 -0.69633,1.58986 -1.49301,5.320866 -1.198952,5.614924 0.107081,0.107078 0.842442,-0.525763 1.634142,-1.40632 1.4593,-1.623098 3.43459,-2.71478 5.66163,-3.129016 1.5739,-0.29275 1.76415,0.181254 0.7113,1.772216 -0.70297,1.062265 -0.99603,1.270576 -1.53196,1.088921 -0.36448,-0.123542 -1.05367,-0.226515 -1.53153,-0.228825 -3.00514,-0.01453 -7.08701,7.02473 -6.525957,11.254157 0.205581,1.549744 0.178515,1.626605 -0.740019,2.101597 -1.032698,0.534028 -1.89073,0.61968 -2.476163,0.247174 z m 14.610979,0.0032 c 0,-0.156477 0.34715,-1.444323 0.77144,-2.861882 1.3598,-4.543056 4.40089,-19.038694 4.61826,-22.013333 l 0.2103,-2.877993 1.12,-0.529599 c 0.616,-0.291279 1.25469,-0.447218 1.41931,-0.34653 0.16462,0.100688 1.70157,0.364661 3.41543,0.586605 3.55435,0.460287 4.86778,1.016596 5.55984,2.354907 1.19221,2.305473 0.16098,4.965088 -2.99591,7.726655 l -1.66367,1.455345 1.29428,0.583639 c 3.90332,1.760154 4.91515,5.374576 2.66296,9.51258 -1.67766,3.082416 -4.73613,5.101363 -9.13404,6.02952 -2.76978,0.58455 -7.2782,0.819952 -7.2782,0.380022 z m 7.52,-1.265888 c 3.46147,-0.662669 6.89,-4.10217 7.66575,-7.690291 0.6354,-2.938893 -2.61923,-6.090584 -5.98964,-5.800205 -0.57493,0.04953 -1.22454,-0.0207 -1.44358,-0.156077 -0.65703,-0.406063 -1.58338,0.08004 -1.91676,1.005814 -0.28457,0.79026 -0.58248,2.063216 -1.85103,7.909361 -0.22914,1.056 -0.49888,2.517827 -0.59942,3.248508 -0.18085,1.314237 -0.16993,1.33192 1.01593,1.646288 0.65931,0.174778 1.41475,0.250868 1.67875,0.169082 0.264,-0.08178 0.912,-0.231402 1.44,-0.33248 z m 1.92321,-15.598789 c 3.05805,-0.796521 5.27204,-3.259543 5.27515,-5.868501 0.003,-2.117087 -0.67934,-3.119998 -2.54182,-3.738613 -2.29748,-0.763168 -3.25893,-0.568265 -3.91926,0.79444 -0.58463,1.206498 -1.94585,8.557808 -1.66789,9.007547 0.23523,0.380621 0.78944,0.342765 2.85382,-0.194937 z M 145.44,46.733863 c -2.46073,-0.581338 -4.44384,-2.279123 -4.98244,-4.2656 -0.69059,-2.547014 1.60312,-7.990163 4.40705,-10.458285 2.61748,-2.303994 6.13605,-3.531768 10.11114,-3.528193 3.71541,0.0033 5.90904,1.187703 7.10272,3.83483 1.20889,2.680841 -0.48987,7.323776 -3.8657,10.565408 -2.14367,2.058461 -4.61255,3.40719 -6.69057,3.655011 -2.81787,0.336051 -5.1706,0.412189 -6.0822,0.196829 z m 7.62831,-2.079437 c 1.42573,-0.458352 4.25451,-3.107385 5.61437,-5.257609 2.93061,-4.633905 0.28619,-9.644373 -5.08268,-9.630314 -0.616,0.0016 -1.48,0.211161 -1.92,0.465664 -1.1907,0.68872 -1.3334,0.740199 -2.66873,0.962791 -1.55931,0.259927 -3.61934,2.118326 -4.84554,4.37126 -0.68219,1.253408 -0.94601,2.241975 -1.05609,3.957248 -0.14299,2.227971 -0.11922,2.317792 0.92906,3.511728 1.58058,1.800179 3.16192,2.406458 5.71382,2.19065 1.14811,-0.0971 2.64022,-0.354231 3.31579,-0.571418 z M 137.28,23.36 c -0.81807,-0.818074 -0.80541,-1.127851 0.0712,-1.741854 0.91453,-0.64056 1.19684,-0.62071 2.1688,0.152496 l 0.8,0.63641 -0.89784,0.796474 C 138.33662,24.166501 138.10353,24.183527 137.28,23.36 Z"
       id="path130"
       inkscape:connector-curvature="0" />
    <path
       style="fill:#000000;stroke-width:0.31999999"
       d="m 284.8,68.719329 c 0,-0.04437 -0.50314,-2.960371 -1.11809,-6.48 -1.27182,-7.279207 -1.26392,-7.199328 -0.7124,-7.199328 0.58017,0 11.25054,7.926461 11.36518,8.442595 0.11715,0.527427 -7.83954,5.317405 -8.83281,5.317405 -0.38603,0 -0.70188,-0.0363 -0.70188,-0.08067 z m 4.11556,-2.853875 c 1.52044,-0.910003 3.02331,-1.828368 3.3397,-2.040816 0.51036,-0.342692 0.0793,-0.750778 -3.82129,-3.617501 -2.41809,-1.777178 -4.4368,-3.190976 -4.486,-3.14177 -0.0906,0.09063 1.44029,9.317789 1.66821,10.054634 0.18202,0.58841 0.28656,0.548656 3.29938,-1.254547 z M 304.48,64.009755 c -1.76,-0.501258 -3.812,-1.074065 -4.56,-1.2729 -0.748,-0.198838 -1.36,-0.521385 -1.36,-0.716774 0,-0.596602 8.04169,-11.14008 8.49673,-11.14008 0.23402,0 0.50382,0.126729 0.59955,0.281625 0.1515,0.24512 1.14348,11.727901 1.14366,13.238375 8e-5,0.741856 -0.50522,0.696211 -4.31994,-0.390246 z m 3.24026,-1.209754 c -0.0938,-0.484 -0.268,-2.595479 -0.38705,-4.69217 -0.34785,-6.126006 -0.12323,-6.06896 -3.9304,-0.998205 -1.81137,2.412551 -3.24602,4.429732 -3.1881,4.482624 0.16922,0.15456 6.78303,2.036775 7.25072,2.063469 0.29499,0.01683 0.37312,-0.245513 0.25483,-0.855718 z M 292.64,56.971754 c -1.936,-1.74799 -3.55603,-3.365721 -3.60006,-3.594956 -0.0753,-0.391984 11.56731,-6.656797 12.37106,-6.656797 0.60125,0 0.41224,0.648755 -2.051,7.04 -1.32,3.424931 -2.4,6.266041 -2.4,6.313574 0,0.539821 -1.40005,-0.465437 -4.32,-3.101821 z m 5.61872,-3.456396 c 1.00252,-2.593447 1.78103,-4.762749 1.73004,-4.820673 -0.051,-0.05792 -2.20429,1.003921 -4.78509,2.359655 -2.5808,1.355734 -4.5734,2.571898 -4.42802,2.702586 0.1454,0.130691 1.40385,1.26534 2.79658,2.521449 1.39273,1.256109 2.60682,2.209248 2.69798,2.118087 0.0912,-0.09116 0.98599,-2.287658 1.98851,-4.881104 z M 51.28,50.668071 c -0.630243,-0.25431 -0.466842,-1.434224 0.391651,-2.82807 0.731203,-1.187175 1.073306,-2.72 0.607066,-2.72 -0.110707,0 -1.19929,0.36 -2.419072,0.8 -3.835975,1.383712 -7.281888,0.817152 -7.809232,-1.283952 -0.358867,-1.429847 0.714902,-3.570512 2.497965,-4.979943 2.005584,-1.585321 5.723916,-3.391811 7.597619,-3.691177 C 54.120829,35.649409 55.04,34.662512 55.04,32.8577 c 0,-1.590315 -0.771814,-2.818471 -2.252365,-3.584093 -1.170605,-0.605344 -4.129785,-0.610931 -5.288112,-0.01 C 46.55128,29.755577 46.08,29.664971 46.08,28.990711 c 0,-1.14528 2.752026,-2.114192 5.981702,-2.105993 2.239184,0.0057 3.195351,0.443599 4.192116,1.919944 0.654227,0.969002 0.744201,1.45122 0.685753,3.675338 -0.037,1.408 0.04193,2.817364 0.175389,3.131921 0.152646,0.359769 0.05959,0.775222 -0.250858,1.12 -0.556416,0.617936 -1.732841,5.963852 -2.162771,9.82808 -0.259321,2.330822 -0.377581,2.63878 -1.320989,3.44 -1.032172,0.876608 -1.340492,0.974675 -2.100342,0.66807 z m -0.854845,-6.340806 c 2.725667,-1.35826 4.554893,-5.301501 3.123373,-6.733021 -0.703542,-0.703543 -2.667261,-0.415194 -5.340442,0.784182 -2.583363,1.159075 -4.048086,2.602931 -4.048086,3.99041 0,2.506585 3.174086,3.498771 6.265155,1.958429 z M 203.28,50.668071 c -0.63024,-0.25431 -0.46684,-1.434224 0.39165,-2.82807 0.7312,-1.187175 1.07331,-2.72 0.60707,-2.72 -0.11071,0 -1.19929,0.36 -2.41908,0.8 -3.83597,1.383712 -7.28188,0.817152 -7.80923,-1.283952 -0.35886,-1.429847 0.71491,-3.570512 2.49797,-4.979943 2.00558,-1.585321 5.72391,-3.391811 7.59762,-3.691177 1.97483,-0.31552 2.894,-1.302417 2.894,-3.107229 0,-1.590315 -0.77181,-2.818471 -2.25236,-3.584093 -1.17061,-0.605344 -4.12979,-0.610931 -5.28812,-0.01 -0.94824,0.491954 -1.41952,0.401348 -1.41952,-0.272912 0,-1.14528 2.75203,-2.114192 5.9817,-2.105993 2.23919,0.0057 3.19535,0.443599 4.19212,1.919944 0.65422,0.969002 0.7442,1.45122 0.68575,3.675338 -0.037,1.408 0.0419,2.817364 0.17539,3.131921 0.15265,0.359769 0.0596,0.775222 -0.25086,1.12 -0.55641,0.617936 -1.73284,5.963852 -2.16277,9.82808 -0.25932,2.330822 -0.37758,2.63878 -1.32099,3.44 -1.03217,0.876608 -1.34049,0.974675 -2.10034,0.66807 z m -0.85484,-6.340806 c 2.72566,-1.35826 4.55489,-5.301501 3.12337,-6.733021 -0.70354,-0.703543 -2.66726,-0.415194 -5.34044,0.784182 -2.58337,1.159075 -4.04809,2.602931 -4.04809,3.99041 0,2.506585 3.17409,3.498771 6.26516,1.958429 z M 289.84,46.651226 c -3.71713,-1.631501 -4.4,-2.039485 -4.4,-2.628803 0,-0.494099 1.35257,-1.905936 4.63683,-4.840003 2.55026,-2.27833 4.85426,-4.18898 5.12,-4.245882 0.56587,-0.121174 0.60573,1.17017 0.27321,8.852586 -0.17986,4.155392 -0.28309,4.846752 -0.72,4.822102 -0.28052,-0.01584 -2.49004,-0.897827 -4.91004,-1.96 z m 4.80284,-8.718067 -0.0828,-1.266845 -3.84,3.463795 c -2.112,1.905088 -3.88005,3.567335 -3.92901,3.693882 -0.049,0.126547 1.60704,0.951526 3.68,1.833283 l 3.76901,1.6032 0.24284,-4.030237 c 0.13356,-2.21663 0.20556,-4.600316 0.16,-5.297078 z M 130.6021,47.25073 c -0.23889,-0.287853 -0.11851,-0.866617 0.4237,-2.036912 1.11216,-2.400473 3.0542,-12.05383 3.0542,-15.181565 0,-1.610475 0.36483,-2.000797 2.48,-2.653277 0.62926,-0.194112 0.72,-0.108086 0.72,0.682589 0,0.497581 -0.49265,2.703285 -1.09478,4.901565 -1.74798,6.381619 -2.21352,9.100474 -1.98297,11.581114 0.19243,2.070403 0.16419,2.203853 -0.51938,2.454995 -1.50603,0.553309 -2.74626,0.654554 -3.08077,0.251491 z m 83.2379,0.0993 c -0.92948,-0.373606 -0.91222,-0.92416 0.0545,-1.738009 0.60836,-0.51216 1.01539,-1.612973 1.89758,-5.132019 2.037,-8.12554 3.71766,-17.475182 3.90374,-21.716843 0.0685,-1.560263 0.20742,-3.098255 0.30882,-3.41776 0.23471,-0.739496 1.82752,-1.100563 2.72831,-0.618469 0.85192,0.455931 0.75697,1.24918 -0.61202,5.113071 -0.89609,2.529141 -1.96053,8.107056 -1.61334,8.454248 0.0842,0.08419 0.76481,-0.0022 1.51249,-0.191986 2.01179,-0.510647 6.45673,0.127515 8.26359,1.186408 2.04771,1.200036 2.51826,2.09699 2.50619,4.777257 -0.0161,3.585267 -1.75207,6.19401 -6.14668,9.237133 -1.17729,0.815235 -6.01209,2.485821 -8.62945,2.981766 -0.56446,0.106954 -1.27077,0.464621 -1.5696,0.794819 -0.58306,0.644276 -1.44999,0.734288 -2.60412,0.270384 z m 9.24818,-3.498758 c 3.92681,-1.212867 7.16005,-4.687274 7.54567,-8.108493 0.3671,-3.256934 -2.63314,-5.639824 -7.11385,-5.650055 -0.704,-0.0016 -1.49117,0.130636 -1.74927,0.293873 -0.29668,0.187641 -0.61837,0.173047 -0.87469,-0.03968 -0.54231,-0.450074 -0.73059,0.09197 -2.14072,6.162794 -1.22295,5.265005 -1.3955,6.962112 -0.77132,7.586292 0.57217,0.572172 2.80613,0.465062 5.10418,-0.24473 z M 38.64,47.032474 c -0.484,-0.141417 -0.88,-0.179945 -0.88,-0.08562 0,0.09433 -0.18,0.03449 -0.4,-0.132966 -0.247731,-0.18857 -2.770851,-0.209107 -6.628107,-0.05396 -3.425458,0.137785 -6.298954,0.17967 -6.385545,0.09308 -0.08659,-0.08659 0.02709,-0.619946 0.252626,-1.185229 0.874477,-2.191782 1.706118,-5.449325 3.08087,-12.067786 0.785993,-3.784 1.575571,-7.383049 1.754617,-7.997887 0.179047,-0.614838 0.325539,-2.206038 0.325539,-3.536 0,-1.454088 0.153089,-2.571201 0.384,-2.802113 0.569636,-0.569636 2.004528,-0.465437 2.833418,0.205757 l 0.72832,0.589757 -0.681786,1.410243 c -0.374979,0.775641 -0.885565,2.34625 -1.134628,3.49025 -0.249065,1.144 -0.614791,2.728 -0.812724,3.52 -0.197933,0.792 -0.88638,3.96 -1.529881,7.040001 -0.643501,3.08 -1.319262,6.2843 -1.501691,7.120668 -0.493887,2.264285 -0.344073,2.331575 5.010972,2.250733 2.4992,-0.03773 5.192,-0.109728 5.984,-0.16 1.25016,-0.07935 1.452544,-0.0036 1.535158,0.574429 0.05234,0.366205 -0.163664,0.962368 -0.48,1.3248 -0.453795,0.519923 -0.760844,0.604714 -1.455158,0.401843 z m 22.16,0.100883 c -0.650083,-0.256406 -0.949238,-0.75582 -0.955101,-1.59447 -0.0069,-0.986342 0.463875,-1.163866 1.569811,-0.591965 1.282538,0.663229 4.073719,0.628743 5.457133,-0.06742 1.593949,-0.802109 3.033613,-2.991236 3.033613,-4.612855 0,-1.595798 -0.949693,-2.465424 -3.813862,-3.49232 C 63.959366,36.009857 62.4,34.625808 62.4,33.497783 c 0,-1.047712 1.470429,-3.798486 2.382019,-4.456115 C 65.902326,28.23347 68.943072,27.52 71.267232,27.52 c 1.889187,0 2.012768,0.04536 2.012768,0.738839 0,0.406361 -0.189933,0.998586 -0.42207,1.316056 -0.403828,0.552264 -0.482384,0.54645 -1.817156,-0.1345 -1.462105,-0.74591 -3.419635,-0.739558 -4.8308,0.01568 -0.822928,0.440418 -1.887225,2.176555 -1.888777,3.081072 -0.0019,1.064624 0.711961,1.568093 3.574883,2.521533 3.340672,1.112548 4.106272,1.83888 4.096893,3.886781 -0.0039,0.844 -0.283661,2.143939 -0.621767,2.888759 -0.872243,1.921484 -3.224611,4.097516 -5.055622,4.676649 -1.749338,0.553299 -4.814061,0.899187 -5.515584,0.622493 z m 19.84,-0.43334 c -4.15232,-1.080893 -5.28,-2.363092 -5.28,-6.003482 0,-2.09752 0.148954,-2.770966 1.019194,-4.608 2.033046,-4.291657 5.790163,-7.232306 10.183526,-7.970521 2.278784,-0.382904 2.537805,-0.367528 3.618243,0.214779 1.516877,0.817527 1.968557,1.78462 1.97432,4.227207 0.0073,3.086052 -0.218157,3.213658 -5.350067,3.028346 -5.415994,-0.195568 -7.619875,0.07722 -8.60815,1.065501 C 77.542269,37.308641 77.44,37.719741 77.44,39.697069 c 0,2.165594 0.05485,2.337658 1.04,3.262746 2.117821,1.988698 4.387824,2.491987 8.4,1.862387 0.88,-0.138089 1.852,-0.358982 2.16,-0.490873 0.889174,-0.380759 0.720528,1.297235 -0.225456,2.243216 -0.70353,0.703532 -1.045638,0.783619 -3.28,0.767836 C 84.15192,47.332621 81.970224,47.046285 80.64,46.700017 Z M 89.225731,33.729994 C 90.276378,32.994093 90.099779,30.876641 88.91423,29.995068 87.630416,29.040422 85.255859,29.144201 83.535626,30.230136 81.961533,31.223818 79.36,33.5481 79.36,33.960756 c 0,0.153584 2.055958,0.279244 4.568797,0.279244 3.662713,0 4.713203,-0.101145 5.296934,-0.510006 z M 190.64,47.032474 c -0.484,-0.141417 -0.88,-0.179945 -0.88,-0.08562 0,0.09433 -0.18,0.03449 -0.4,-0.132966 -0.24773,-0.18857 -2.77085,-0.209107 -6.62811,-0.05396 -3.42545,0.137785 -6.29895,0.17967 -6.38554,0.09308 -0.0866,-0.08659 0.0271,-0.619946 0.25262,-1.185229 0.87448,-2.191782 1.70612,-5.449325 3.08087,-12.067786 0.786,-3.784 1.57557,-7.383049 1.75462,-7.997887 0.17905,-0.614838 0.32554,-2.206038 0.32554,-3.536 0,-1.454088 0.15309,-2.571201 0.384,-2.802113 0.56964,-0.569636 2.00453,-0.465437 2.83342,0.205757 l 0.72832,0.589757 -0.68179,1.410243 c -0.37498,0.775634 -0.88556,2.346243 -1.13463,3.490243 -0.24906,1.144 -0.61479,2.728 -0.81272,3.52 -0.19793,0.792 -0.88638,3.96 -1.52988,7.040001 -0.6435,3.08 -1.31926,6.2843 -1.50169,7.120668 -0.49389,2.264285 -0.34407,2.331575 5.01097,2.250733 2.4992,-0.03773 5.192,-0.109728 5.984,-0.16 1.25016,-0.07935 1.45254,-0.0036 1.53516,0.574429 0.0523,0.366205 -0.16367,0.962368 -0.48,1.3248 -0.4538,0.519923 -0.76085,0.604714 -1.45516,0.401843 z m 43.92,0.100883 c -0.65008,-0.256406 -0.94924,-0.75582 -0.9551,-1.59447 -0.007,-0.986342 0.46387,-1.163866 1.56981,-0.591965 1.28254,0.663229 4.07372,0.628743 5.45713,-0.06742 1.59395,-0.802109 3.03362,-2.991236 3.03362,-4.612855 0,-1.595798 -0.9497,-2.465424 -3.81387,-3.49232 -2.13222,-0.764473 -3.69159,-2.148522 -3.69159,-3.276547 0,-1.047712 1.47043,-3.798486 2.38202,-4.456115 1.12031,-0.808198 4.16105,-1.521668 6.48521,-1.521668 1.88919,0 2.01277,0.04536 2.01277,0.738839 0,0.406361 -0.18993,0.998586 -0.42207,1.316056 -0.40383,0.552264 -0.48238,0.54645 -1.81716,-0.1345 -1.4621,-0.74591 -3.41963,-0.739558 -4.8308,0.01568 -0.82292,0.440418 -1.88722,2.176555 -1.88877,3.081072 -0.002,1.064624 0.71196,1.568093 3.57488,2.521533 3.34067,1.112548 4.10627,1.83888 4.09689,3.886781 -0.004,0.844 -0.28366,2.143939 -0.62176,2.888759 -0.87225,1.921484 -3.22461,4.097516 -5.05563,4.676649 -1.74933,0.553299 -4.81406,0.899187 -5.51558,0.622493 z M 94.829021,46.794151 c -0.268451,-0.170813 -0.166327,-0.722208 0.36952,-1.995101 0.900685,-2.139568 2.235753,-8.555526 2.729885,-13.11905 0.401526,-3.708273 0.847168,-4.48 2.587024,-4.48 1.10103,0 1.15053,0.362685 0.31108,2.279323 -0.69633,1.58986 -1.49301,5.320866 -1.198952,5.614924 0.107081,0.107078 0.842442,-0.525763 1.634142,-1.40632 1.4593,-1.623098 3.43459,-2.71478 5.66163,-3.129016 1.5739,-0.29275 1.76415,0.181254 0.7113,1.772216 -0.70297,1.062265 -0.99603,1.270576 -1.53196,1.088921 -0.36448,-0.123542 -1.05367,-0.226515 -1.53153,-0.228825 -3.00514,-0.01453 -7.08701,7.02473 -6.525957,11.254157 0.205581,1.549744 0.178515,1.626605 -0.740019,2.101597 -1.032698,0.534028 -1.89073,0.61968 -2.476163,0.247174 z m 14.610979,0.0032 c 0,-0.156477 0.34715,-1.444323 0.77144,-2.861882 1.3598,-4.543056 4.40089,-19.038694 4.61826,-22.013333 l 0.2103,-2.877993 1.12,-0.529599 c 0.616,-0.291279 1.25469,-0.447218 1.41931,-0.34653 0.16462,0.100688 1.70157,0.364661 3.41543,0.586605 3.55435,0.460287 4.86778,1.016596 5.55984,2.354907 1.19221,2.305473 0.16098,4.965088 -2.99591,7.726655 l -1.66367,1.455345 1.29428,0.583639 c 3.90332,1.760154 4.91515,5.374576 2.66296,9.51258 -1.67766,3.082416 -4.73613,5.101363 -9.13404,6.02952 -2.76978,0.58455 -7.2782,0.819952 -7.2782,0.380022 z m 7.52,-1.265888 c 3.46147,-0.662669 6.89,-4.10217 7.66575,-7.690291 0.6354,-2.938893 -2.61923,-6.090584 -5.98964,-5.800205 -0.57493,0.04953 -1.22454,-0.0207 -1.44358,-0.156077 -0.65703,-0.406063 -1.58338,0.08004 -1.91676,1.005814 -0.28457,0.79026 -0.58248,2.063216 -1.85103,7.909361 -0.22914,1.056 -0.49888,2.517827 -0.59942,3.248508 -0.18085,1.314237 -0.16993,1.33192 1.01593,1.646288 0.65931,0.174778 1.41475,0.250868 1.67875,0.169082 0.264,-0.08178 0.912,-0.231402 1.44,-0.33248 z m 1.92321,-15.598789 c 3.05805,-0.796521 5.27204,-3.259543 5.27515,-5.868501 0.003,-2.117087 -0.67934,-3.119998 -2.54182,-3.738613 -2.29748,-0.763168 -3.25893,-0.568265 -3.91926,0.79444 -0.58463,1.206498 -1.94585,8.557808 -1.66789,9.007547 0.23523,0.380621 0.78944,0.342765 2.85382,-0.194937 z M 145.44,46.733863 c -2.46073,-0.581338 -4.44384,-2.279123 -4.98244,-4.2656 -0.69059,-2.547014 1.60312,-7.990163 4.40705,-10.458285 2.61748,-2.303994 6.13605,-3.531768 10.11114,-3.528193 3.71541,0.0033 5.90904,1.187703 7.10272,3.83483 1.20889,2.680841 -0.48987,7.323776 -3.8657,10.565408 -2.14367,2.058461 -4.61255,3.40719 -6.69057,3.655011 -2.81787,0.336051 -5.1706,0.412189 -6.0822,0.196829 z m 7.62831,-2.079437 c 1.42573,-0.458352 4.25451,-3.107385 5.61437,-5.257609 2.93061,-4.633905 0.28619,-9.644373 -5.08268,-9.630314 -0.616,0.0016 -1.48,0.211161 -1.92,0.465664 -1.1907,0.68872 -1.3334,0.740199 -2.66873,0.962791 -1.55931,0.259927 -3.61934,2.118326 -4.84554,4.37126 -0.68219,1.253408 -0.94601,2.241975 -1.05609,3.957248 -0.14299,2.227971 -0.11922,2.317792 0.92906,3.511728 1.58058,1.800179 3.16192,2.406458 5.71382,2.19065 1.14811,-0.0971 2.64022,-0.354231 3.31579,-0.571418 z M 137.28,23.36 c -0.81807,-0.818074 -0.80541,-1.127851 0.0712,-1.741854 0.91453,-0.64056 1.19684,-0.62071 2.1688,0.152496 l 0.8,0.63641 -0.89784,0.796474 C 138.33662,24.166501 138.10353,24.183527 137.28,23.36 Z"
       id="path128"
       inkscape:connector-curvature="0" />
  </g>
</svg>
