<?xml version="1.0" encoding="UTF-8" standalone="no"?>
<!-- Created with Inkscape (http://www.inkscape.org/) -->

<svg
   xmlns:dc="http://purl.org/dc/elements/1.1/"
   xmlns:cc="http://creativecommons.org/ns#"
   xmlns:rdf="http://www.w3.org/1999/02/22-rdf-syntax-ns#"
   xmlns:svg="http://www.w3.org/2000/svg"
   xmlns="http://www.w3.org/2000/svg"
   xmlns:sodipodi="http://sodipodi.sourceforge.net/DTD/sodipodi-0.dtd"
   xmlns:inkscape="http://www.inkscape.org/namespaces/inkscape"
   version="1.1"
   id="svg10"
   width="400"
   height="313.60001"
   viewBox="0 0 400 313.60001"
   sodipodi:docname="calibrants.svg"
   inkscape:version="0.92.4 (5da689c313, 2019-01-14)">
  <metadata
     id="metadata16">
    <rdf:RDF>
      <cc:Work
         rdf:about="">
        <dc:format>image/svg+xml</dc:format>
        <dc:type
           rdf:resource="http://purl.org/dc/dcmitype/StillImage" />
        <dc:title></dc:title>
      </cc:Work>
    </rdf:RDF>
  </metadata>
  <defs
     id="defs14" />
  <sodipodi:namedview
     pagecolor="#ffffff"
     bordercolor="#666666"
     borderopacity="1"
     objecttolerance="10"
     gridtolerance="10"
     guidetolerance="10"
     inkscape:pageopacity="0"
     inkscape:pageshadow="2"
     inkscape:window-width="1366"
     inkscape:window-height="705"
     id="namedview12"
     showgrid="false"
     inkscape:pagecheckerboard="true"
     inkscape:zoom="1.7091836"
     inkscape:cx="114.28657"
     inkscape:cy="156.8"
     inkscape:window-x="-8"
     inkscape:window-y="-8"
     inkscape:window-maximized="1"
     inkscape:current-layer="svg10" />
  <path
     style="fill:#fefefe;stroke-width:0.31999999"
     d="m 34.851702,175.34912 c -2.756739,-0.38556 -6.300095,-1.5998 -8.540102,-2.92653 -2.902072,-1.71885 -5.873223,-4.85648 -7.218152,-7.62258 -2.102389,-4.32398 -2.27939,-5.50442 -2.279159,-15.20001 2.34e-4,-9.82433 0.179078,-11.10121 2.124439,-15.16773 1.781422,-3.72382 4.869914,-6.81725 8.613538,-8.62728 3.926076,-1.89826 6.321062,-2.38776 11.807734,-2.41335 5.589002,-0.0261 8.043296,0.48622 12.48,2.605 6.46815,3.08891 10.56,9.07655 10.56,15.45254 0,2.16253 -0.32849,2.25637 -7.552845,2.15775 L 48.48,143.52 47.52,141.5417 c -1.217664,-2.50928 -2.156653,-3.51619 -4.16,-4.46092 -3.182208,-1.50066 -7.080374,-0.89408 -9.456317,1.47145 C 31.786529,140.6601 31.52,141.87751 31.52,149.44 c 0,7.5625 0.266529,8.77991 2.383683,10.88778 2.375943,2.36553 6.274109,2.97211 9.456317,1.47145 2.003347,-0.94473 2.942336,-1.95164 4.16,-4.46092 l 0.96,-1.97831 6.367155,-0.0869 c 5.587075,-0.0763 6.439786,-0.0212 6.96,0.4496 0.726227,0.65723 0.763795,2.29813 0.121968,5.32705 -0.646454,3.05075 -1.862595,5.13224 -4.642608,7.94607 -1.979939,2.00403 -2.945382,2.69384 -5.446515,3.89153 -1.672,0.80065 -4.013894,1.69174 -5.204208,1.9802 -2.608528,0.63213 -8.876253,0.88828 -11.78409,0.48159 z m 38.876874,-0.14455 c -3.916544,-0.85208 -6.758339,-2.99099 -8.24463,-6.2054 C 64.905523,167.74822 64.8,166.92754 64.8,163.68001 c 0,-4.36792 0.400307,-5.52031 2.725174,-7.84518 2.582445,-2.58244 6.761146,-4.12291 15.191031,-5.60011 2.637913,-0.46225 4.843891,-0.88815 4.902173,-0.94643 0.237267,-0.23726 -0.754125,-1.42563 -1.456189,-1.74551 C 84.85528,146.94731 83.432941,147.15425 81.92,148.16 l -1.44,0.95727 -6.24,-0.004 c -3.432,-0.002 -6.456,-0.14044 -6.72,-0.30777 -0.706397,-0.44774 -0.558781,-3.40342 0.249062,-4.98692 0.772208,-1.51365 3.19361,-3.85344 5.19562,-5.0205 0.789424,-0.46019 2.587318,-1.23915 3.995318,-1.73103 2.398742,-0.83797 2.892595,-0.89472 7.84,-0.90091 4.571584,-0.006 5.582323,0.0885 7.53329,0.70234 4.68376,1.47364 7.84875,4.38125 9.10524,8.36476 0.59919,1.89965 0.64147,2.91317 0.64147,15.376 0,9.95068 -0.0976,13.43991 -0.384,13.7263 -0.27204,0.27203 -2.178032,0.384 -6.537142,0.384 -5.167101,0 -6.233725,-0.0806 -6.656,-0.50286 C 88.226285,173.94058 88,173.5218 88,173.28653 c 0,-0.29006 -0.695328,-0.0718 -2.16,0.67791 -3.258112,1.66779 -7.941536,2.14734 -12.111424,1.24013 z m 11.028502,-11.93553 c 0.790304,-0.4916 1.754138,-1.47934 2.219194,-2.27424 l 0.822115,-1.40522 -1.579193,0.21817 C 81.31952,160.48462 79.2,161.41332 79.2,162.8833 c 0,1.77892 2.984342,1.98608 5.557078,0.38574 z M 169.28,175.38219 c -1.71525,-0.31741 -3.77178,-1.14125 -4.50478,-1.80461 -0.47432,-0.42925 -0.58238,-0.39535 -1.05909,0.3322 l -0.53089,0.81023 h -6.05447 c -5.89377,0 -6.0677,-0.0189 -6.55263,-0.71121 -0.44022,-0.62851 -0.49814,-3.53223 -0.49814,-24.97454 v -24.26335 l 0.78546,-0.78545 c 0.77378,-0.77379 0.8682,-0.78546 6.35684,-0.78546 5.15188,0 5.63488,0.0499 6.41454,0.66323 l 0.84316,0.66323 v 6.88344 c 0,3.78589 0.108,6.82853 0.24,6.76143 4.09293,-2.08076 3.80037,-2.01286 8.56,-1.98684 3.69794,0.0202 4.79317,0.14014 6.27397,0.68693 4.81611,1.77839 7.98595,5.35208 9.44522,10.64858 0.82616,2.99862 0.82832,13.63831 0.003,16.61716 -2.03056,7.33221 -6.982,11.0703 -15.08256,11.38657 -1.76,0.0687 -3.848,0.005 -4.64,-0.14154 z m 3.19486,-13.06268 c 1.66763,-0.83691 2.90284,-3.4535 2.92387,-6.19374 0.0214,-2.78705 -0.56674,-4.62109 -1.94723,-6.07229 -3.07929,-3.237 -8.15378,-1.02801 -8.94741,3.89493 -0.61529,3.81675 0.65488,7.07534 3.33591,8.55816 0.97203,0.53761 3.38492,0.44023 4.63486,-0.18706 z m 60.61372,12.88506 c -3.91655,-0.85208 -6.75834,-2.99099 -8.24463,-6.2054 -0.57843,-1.25095 -0.68395,-2.07163 -0.68395,-5.31916 0,-4.36792 0.40031,-5.52031 2.72517,-7.84518 2.58245,-2.58244 6.76115,-4.12291 15.19103,-5.60011 2.63792,-0.46225 4.8439,-0.88815 4.90218,-0.94643 0.23726,-0.23726 -0.75413,-1.42563 -1.45619,-1.74551 -1.30691,-0.59547 -2.72925,-0.38853 -4.24219,0.61722 l -1.44,0.95727 -6.24,-0.004 c -3.432,-0.002 -6.456,-0.14044 -6.72,-0.30777 -0.7064,-0.44774 -0.55878,-3.40342 0.24906,-4.98692 0.77221,-1.51365 3.19361,-3.85344 5.19562,-5.0205 0.78943,-0.46019 2.58732,-1.23915 3.99532,-1.73103 2.39874,-0.83797 2.8926,-0.89472 7.84,-0.90091 4.57158,-0.006 5.58232,0.0885 7.53329,0.70234 4.68376,1.47364 7.84875,4.38125 9.10524,8.36476 0.59919,1.89965 0.64147,2.91317 0.64147,15.376 0,9.95068 -0.0976,13.43991 -0.384,13.7263 -0.27204,0.27203 -2.17803,0.384 -6.53714,0.384 -5.1671,0 -6.23373,-0.0806 -6.656,-0.50286 -0.27658,-0.27658 -0.50286,-0.69536 -0.50286,-0.93063 0,-0.29006 -0.69533,-0.0718 -2.16,0.67791 -3.25811,1.66779 -7.94154,2.14734 -12.11142,1.24013 z m 11.0285,-11.93553 c 0.7903,-0.4916 1.75414,-1.47934 2.21919,-2.27424 l 0.82212,-1.40522 -1.5792,0.21817 c -4.89967,0.67687 -7.01919,1.60557 -7.01919,3.07555 0,1.77892 2.98434,1.98608 5.55708,0.38574 z m 113.81537,12.07792 c -7.98583,-1.25934 -13.62407,-5.62232 -13.60755,-10.52978 0.009,-2.70797 0.48646,-2.89717 7.3095,-2.89717 5.33994,0 5.45347,0.0143 6.39245,0.80437 1.22729,1.0327 2.96547,1.75563 4.22118,1.75563 1.38727,0 3.74855,-0.63391 4.14624,-1.1131 0.63591,-0.76624 -0.5712,-1.18327 -6.14569,-2.12321 -3.04071,-0.51271 -6.2144,-1.15847 -7.05264,-1.43502 -2.28692,-0.75449 -5.17674,-2.82917 -6.29741,-4.52111 -1.36618,-2.06253 -1.74359,-3.59766 -1.75239,-7.12757 -0.007,-2.66679 0.0954,-3.2372 0.8312,-4.64633 1.83332,-3.51099 5.85453,-6.13313 10.8577,-7.08009 3.76122,-0.7119 10.15747,-0.45785 13.24496,0.52606 6.76816,2.15685 10.24109,5.57638 10.0151,9.86112 -0.1319,2.5012 -0.41552,2.60981 -6.8151,2.60981 -3.91498,0 -5.30829,-0.11016 -5.92,-0.46804 -2.54525,-1.48909 -3.63088,-1.83258 -5.34317,-1.69059 -2.00163,0.16599 -2.99683,0.84753 -2.20147,1.50761 0.2681,0.22251 2.90333,0.81616 5.85606,1.31924 6.64266,1.13174 8.11636,1.56914 10.51229,3.12011 2.0145,1.30406 3.19059,2.75246 4.32541,5.32685 0.54739,1.2418 0.70198,2.22188 0.71274,4.5186 0.0122,2.56145 -0.0969,3.15906 -0.86016,4.71909 -2.33213,4.76667 -8.06704,7.45034 -16.5217,7.73138 -2.2,0.0731 -4.8584,-0.003 -5.90755,-0.16786 z M 108.97814,174.0088 C 108.53792,173.38029 108.48,170.47657 108.48,149.03426 v -24.26335 l 0.78546,-0.78545 c 0.77378,-0.77379 0.8682,-0.78546 6.35684,-0.78546 5.15188,0 5.63488,0.0499 6.41454,0.66323 l 0.84316,0.66323 v 24.38557 c 0,21.55294 -0.0579,24.46818 -0.49814,25.09677 -0.48565,0.69335 -0.65388,0.71121 -6.70186,0.71121 -6.04798,0 -6.21621,-0.0179 -6.70186,-0.71121 z m 20.8,0 c -0.4361,-0.62262 -0.49814,-2.88888 -0.49814,-18.19684 0,-17.20521 0.0106,-17.49917 0.66323,-18.3288 l 0.66322,-0.84316 h 5.89678 c 5.4701,0 5.94308,0.0463 6.53677,0.64 0.62456,0.62457 0.64,1.06667 0.64,18.3288 0,15.49184 -0.0619,17.77713 -0.49814,18.4 -0.48565,0.69335 -0.65388,0.71121 -6.70186,0.71121 -6.04798,0 -6.21621,-0.0179 -6.70186,-0.71121 z m 65.28,0 c -0.4361,-0.62262 -0.49814,-2.88888 -0.49814,-18.19684 0,-17.25327 0.009,-17.49695 0.66894,-18.33607 l 0.66894,-0.85042 5.64482,0.0873 5.64482,0.0873 0.62884,0.96009 0.62883,0.9601 1.45741,-0.71687 c 2.04945,-1.00807 4.3167,-1.36332 8.70108,-1.36332 5.25641,0 5.07632,-0.22529 5.07632,6.35041 0,6.46245 0.28855,6.12896 -5.3052,6.13138 -2.27414,9.6e-4 -4.67874,0.15284 -5.34355,0.33746 -1.64569,0.45701 -3.34637,2.02378 -3.74169,3.44708 -0.18782,0.67621 -0.32675,5.24639 -0.32777,10.78247 -0.002,8.17681 -0.076,9.71479 -0.49993,10.32 -0.48565,0.69335 -0.65388,0.71121 -6.70186,0.71121 -6.04798,0 -6.21621,-0.0179 -6.70186,-0.71121 z m 73.28,0 c -0.4361,-0.62262 -0.49814,-2.88888 -0.49814,-18.19684 0,-17.20521 0.0106,-17.49917 0.66323,-18.3288 l 0.66322,-0.84316 h 5.71355 5.71355 l 0.67183,0.85409 0.67182,0.8541 1.21699,-0.68399 c 4.06176,-2.28284 12.39942,-2.20626 16.73546,0.15371 3.35389,1.82542 5.76555,5.25431 6.71129,9.54209 0.62378,2.82809 0.62367,26.07699 -1.2e-4,26.82991 -0.38098,0.45985 -1.25438,0.5301 -6.59041,0.5301 -5.5528,0 -6.20274,-0.0569 -6.68081,-0.5852 -0.46868,-0.51788 -0.5298,-1.72345 -0.53139,-10.48 -10e-4,-6.23183 -0.13259,-10.36598 -0.35513,-11.16759 -0.52545,-1.89269 -2.36223,-3.57589 -4.20344,-3.852 -2.30287,-0.34534 -4.23431,0.70694 -5.23254,2.85077 -0.75025,1.61125 -0.76089,1.77457 -0.76397,11.72281 -0.003,8.60976 -0.0762,10.19306 -0.50127,10.8 -0.48565,0.69335 -0.65388,0.71121 -6.70186,0.71121 -6.04798,0 -6.21621,-0.0179 -6.70186,-0.71121 z m 58.70186,0.25266 c -3.62413,-1.01004 -6.71139,-3.40279 -8.21242,-6.36491 -1.34137,-2.64705 -1.69594,-5.20877 -1.70202,-12.29655 l -0.006,-6.48 h -3.02186 c -4.07687,0 -4.01814,0.0923 -4.01814,-6.3112 0,-6.2024 -0.0227,-6.1688 4.16,-6.1688 h 2.88 v -5.93454 c 0,-7.96804 -0.4402,-7.50546 7.1423,-7.50546 5.15188,0 5.63488,0.0499 6.41453,0.66323 l 0.84317,0.66323 v 6.05677 6.05677 h 4.29677 c 4.29488,0 4.29709,3.2e-4 4.9815,0.87049 0.64362,0.81823 0.67863,1.16561 0.58323,5.78646 -0.0915,4.43031 -0.16288,4.96079 -0.72265,5.36952 -0.46231,0.33755 -1.71034,0.45353 -4.88,0.45353 H 331.52 v 5.71685 c 0,7.62276 -0.15299,7.40316 5.15776,7.40316 3.64115,0 3.8703,0.039 4.6168,0.78545 0.76326,0.76329 0.78544,0.91932 0.78544,5.5288 0,6.64963 0.56698,6.17284 -7.29814,6.13713 -3.98663,-0.0181 -6.83088,-0.17605 -7.74186,-0.42993 z m -196.97884,-40.315 c -0.56205,-0.41039 -0.63084,-0.94121 -0.72288,-5.57828 -0.13691,-6.89749 -0.63455,-6.44818 7.14172,-6.44818 7.703,0 7.2,-0.43593 7.2,6.24 0,6.6712 0.49331,6.24 -7.13884,6.24 -4.55047,0 -5.99755,-0.10128 -6.48,-0.45354 z"
     id="path24"
     inkscape:connector-curvature="0" />
  <path
     style="fill:#000000;stroke-width:0.31999999"
     d=""
     id="path22"
     inkscape:connector-curvature="0" />
  <path
     style="fill:#000000;stroke-width:0.31999999"
     d=""
     id="path20"
     inkscape:connector-curvature="0" />
</svg>
