<?xml version="1.0" encoding="UTF-8" standalone="no"?>
<!-- Created with Inkscape (http://www.inkscape.org/) -->

<svg
   xmlns:dc="http://purl.org/dc/elements/1.1/"
   xmlns:cc="http://creativecommons.org/ns#"
   xmlns:rdf="http://www.w3.org/1999/02/22-rdf-syntax-ns#"
   xmlns:svg="http://www.w3.org/2000/svg"
   xmlns="http://www.w3.org/2000/svg"
   xmlns:sodipodi="http://sodipodi.sourceforge.net/DTD/sodipodi-0.dtd"
   xmlns:inkscape="http://www.inkscape.org/namespaces/inkscape"
   version="1.1"
   id="svg38"
   width="400"
   height="313.60001"
   viewBox="0 0 400 313.60001"
   sodipodi:docname="Digests.svg"
   inkscape:version="0.92.4 (5da689c313, 2019-01-14)">
  <metadata
     id="metadata44">
    <rdf:RDF>
      <cc:Work
         rdf:about="">
        <dc:format>image/svg+xml</dc:format>
        <dc:type
           rdf:resource="http://purl.org/dc/dcmitype/StillImage" />
        <dc:title></dc:title>
      </cc:Work>
    </rdf:RDF>
  </metadata>
  <defs
     id="defs42" />
  <sodipodi:namedview
     pagecolor="#ffffff"
     bordercolor="#666666"
     borderopacity="1"
     objecttolerance="10"
     gridtolerance="10"
     guidetolerance="10"
     inkscape:pageopacity="0"
     inkscape:pageshadow="2"
     inkscape:window-width="1366"
     inkscape:window-height="705"
     id="namedview40"
     showgrid="false"
     inkscape:pagecheckerboard="true"
     inkscape:zoom="1.42"
     inkscape:cx="215.57552"
     inkscape:cy="170.10117"
     inkscape:window-x="-8"
     inkscape:window-y="-8"
     inkscape:window-maximized="1"
     inkscape:current-layer="svg38" />
  <path
     style="fill:#fefefe;stroke-width:0.31999999"
     d="m 150.14559,190.05428 c -7.91756,-1.2209 -13.18559,-6.34056 -13.18559,-12.81421 0,-2.76797 0.18115,-2.84103 7.0312,-2.8357 3.08484,0.003 5.93117,0.0908 6.32518,0.19638 0.39401,0.1056 1.00855,0.66474 1.36564,1.24252 0.99122,1.60383 2.13466,2.2134 4.15798,2.21664 2.06141,0.003 4.4667,-1.02357 5.27027,-2.24996 0.54725,-0.83521 1.07132,-3.96994 0.6637,-3.96994 -0.12934,0 -0.6174,0.27191 -1.08457,0.60425 -1.55243,1.10439 -4.11035,1.63575 -7.8744,1.63575 -7.41618,0 -12.06422,-2.57394 -14.73541,-8.16 -1.42617,-2.98245 -1.75959,-5.07584 -1.75959,-11.04759 0,-7.46715 1.0228,-10.83434 4.38179,-14.42537 2.74444,-2.93403 6.89496,-4.43687 12.25821,-4.43852 3.3917,-9.6e-4 5.68213,0.49553 7.83456,1.69855 1.0464,0.58484 1.44544,0.68659 1.44544,0.36854 0,-0.24163 0.32004,-0.66349 0.7112,-0.93747 1.04187,-0.72976 10.97573,-0.72976 12.0176,0 l 0.7112,0.49815 v 19.59462 c 0,16.57203 -0.0757,19.88513 -0.49053,21.4779 -1.39302,5.34816 -5.24348,8.98763 -11.35175,10.72969 -2.78628,0.79464 -10.33161,1.13398 -13.69213,0.61577 z m 7.90103,-28.95826 c 1.2711,-0.50859 2.56351,-2.01859 3.2155,-3.75685 0.59432,-1.58451 0.40152,-3.80581 -0.48469,-5.58418 -2.79554,-5.60993 -10.37743,-3.3343 -10.37743,3.11469 0,4.94396 3.57544,7.85531 7.64662,6.22634 z m 37.84339,14.262 c -10.01274,-1.40965 -15.35595,-8.14463 -15.39885,-19.40986 -0.0246,-6.44961 1.88299,-11.65397 5.49835,-15.00115 2.31867,-2.14668 5.5191,-3.78114 8.73967,-4.46334 2.85684,-0.60516 8.31398,-0.60626 11.19082,-0.002 8.91955,1.87268 14.24,9.34423 14.24,19.99735 0,2.01928 -0.12211,2.63016 -0.66323,3.31808 l -0.66322,0.84315 h -12.00623 -12.00623 l 0.60675,1.03891 c 1.80588,3.09209 6.1592,3.62583 9.5152,1.16662 l 1.26304,-0.92553 h 6.27296 c 4.4523,0 6.38441,0.11145 6.65696,0.384 0.2112,0.2112 0.38265,1.0392 0.381,1.84 -0.008,4.06335 -5.89954,9.23297 -12.23753,10.73869 -2.50283,0.5946 -8.704,0.85339 -11.38946,0.47532 z m 9.00808,-25.31068 c -2.19704,-3.77264 -7.27039,-3.73377 -9.2378,0.0708 l -0.47673,0.92188 h 5.14632 5.1463 z m 31.75436,25.29962 c -7.98582,-1.25934 -13.62405,-5.62232 -13.60755,-10.52978 0.009,-2.70797 0.48645,-2.89717 7.30951,-2.89717 5.33994,0 5.45346,0.0143 6.39243,0.80437 1.22729,1.0327 2.96548,1.75563 4.22118,1.75563 1.38727,0 3.74856,-0.63391 4.14625,-1.1131 0.63592,-0.76624 -0.5712,-1.18327 -6.14568,-2.12321 -3.04072,-0.51271 -6.21442,-1.15847 -7.05266,-1.43502 -2.28691,-0.75449 -5.17672,-2.82917 -6.29741,-4.52111 -1.36616,-2.06253 -1.74359,-3.59766 -1.75238,-7.12757 -0.007,-2.66679 0.0954,-3.2372 0.83121,-4.64633 1.83332,-3.51099 5.85451,-6.13313 10.85768,-7.08009 3.76122,-0.7119 10.15749,-0.45785 13.24497,0.52606 6.76817,2.15685 10.24109,5.57638 10.01511,9.86112 -0.13191,2.5012 -0.41554,2.60981 -6.81511,2.60981 -3.91499,0 -5.30828,-0.11016 -5.92,-0.46804 -2.54523,-1.48909 -3.63087,-1.83258 -5.34318,-1.69059 -2.00161,0.16599 -2.99682,0.84753 -2.20147,1.50761 0.26811,0.22251 2.90333,0.81616 5.85606,1.31924 6.64267,1.13174 8.11637,1.56914 10.51229,3.12011 2.0145,1.30406 3.1906,2.75246 4.32541,5.32685 0.54739,1.2418 0.70199,2.22188 0.71276,4.5186 0.012,2.56145 -0.0969,3.15906 -0.86018,4.71909 -2.33211,4.76667 -8.06704,7.45034 -16.52169,7.73138 -2.2,0.0731 -4.8584,-0.003 -5.90755,-0.16786 z m 72.96,0 c -7.98582,-1.25934 -13.62405,-5.62232 -13.60755,-10.52978 0.009,-2.70797 0.48645,-2.89717 7.30951,-2.89717 5.33994,0 5.45346,0.0143 6.39243,0.80437 1.22729,1.0327 2.96548,1.75563 4.22118,1.75563 1.38727,0 3.74856,-0.63391 4.14625,-1.1131 0.63592,-0.76624 -0.5712,-1.18327 -6.14568,-2.12321 -3.04072,-0.51271 -6.21442,-1.15847 -7.05266,-1.43502 -2.28691,-0.75449 -5.17672,-2.82917 -6.29741,-4.52111 -1.36616,-2.06253 -1.74359,-3.59766 -1.75238,-7.12757 -0.007,-2.66679 0.0954,-3.2372 0.83121,-4.64633 1.83332,-3.51099 5.85451,-6.13313 10.85768,-7.08009 3.76122,-0.7119 10.15749,-0.45785 13.24497,0.52606 6.76816,2.15685 10.24109,5.57638 10.0151,9.86112 -0.1319,2.5012 -0.41552,2.60981 -6.8151,2.60981 -3.91498,0 -5.30828,-0.11016 -5.92,-0.46804 -2.54523,-1.48909 -3.63087,-1.83258 -5.34318,-1.69059 -2.00161,0.16599 -2.99682,0.84753 -2.20147,1.50761 0.26811,0.22251 2.90333,0.81616 5.85606,1.31924 6.64267,1.13174 8.11637,1.56914 10.5123,3.12011 2.0145,1.30406 3.19059,2.75246 4.32541,5.32685 0.54739,1.2418 0.70198,2.22188 0.71274,4.5186 0.0122,2.56145 -0.0969,3.15906 -0.86016,4.71909 -2.33213,4.76667 -8.06704,7.45034 -16.5217,7.73138 -2.2,0.0731 -4.8584,-0.003 -5.90755,-0.16786 z M 67.409597,174.13481 C 66.926643,173.60115 66.88,171.42132 66.88,149.3844 c 0,-23.31703 0.02131,-24.18448 0.606723,-24.71428 0.556547,-0.50367 1.701136,-0.54078 13.84,-0.44877 l 13.233277,0.10031 2.56,0.90329 c 3.73022,1.3162 5.46686,2.34989 8.04494,4.78852 1.66728,1.5771 2.64904,2.85024 3.57802,4.64 2.03659,3.92362 2.33345,5.43935 2.52506,12.89234 0.25822,10.04422 -0.47176,13.8928 -3.49146,18.40763 -2.66385,3.98278 -6.85035,6.82573 -11.985533,8.13909 -2.234717,0.57155 -3.58536,0.62748 -15.152617,0.62748 -11.896397,0 -12.732698,-0.037 -13.228813,-0.5852 z m 24.069955,-12.71244 c 2.2936,-0.68112 4.011418,-2.43363 4.696954,-4.79178 0.423395,-1.45643 0.499961,-2.95134 0.406294,-7.93261 -0.104461,-5.55517 -0.181395,-6.26239 -0.810256,-7.44827 C 94.054835,138.01052 91.549427,136.96 85.54192,136.96 H 81.6 v 12.48 12.48001 h 4.10192 c 2.779046,0 4.642339,-0.16049 5.777632,-0.49764 z m 25.818588,12.58643 c -0.4361,-0.62262 -0.49814,-2.88888 -0.49814,-18.19684 0,-17.20521 0.0106,-17.49917 0.66323,-18.3288 l 0.66322,-0.84316 h 5.89678 c 5.4701,0 5.94308,0.0463 6.53677,0.64 0.62456,0.62457 0.64,1.06667 0.64,18.3288 0,15.49184 -0.0619,17.77713 -0.49814,18.4 -0.48565,0.69335 -0.65388,0.71121 -6.70186,0.71121 -6.04798,0 -6.21621,-0.0179 -6.70186,-0.71121 z M 278.72,174.26146 c -3.62412,-1.01004 -6.7114,-3.40279 -8.21242,-6.36491 -1.34137,-2.64705 -1.69594,-5.20877 -1.70202,-12.29655 l -0.006,-6.48 h -3.02186 c -4.07687,0 -4.01814,0.0923 -4.01814,-6.3112 0,-6.2024 -0.0227,-6.1688 4.16,-6.1688 h 2.88 v -5.93454 c 0,-7.96804 -0.4402,-7.50546 7.1423,-7.50546 5.15188,0 5.63488,0.0499 6.41454,0.66323 l 0.84316,0.66323 v 6.05677 6.05677 h 4.29677 c 4.29487,0 4.29708,3.2e-4 4.9815,0.87049 0.64362,0.81823 0.67864,1.16561 0.58323,5.78646 -0.0915,4.43031 -0.16287,4.96079 -0.72266,5.36952 -0.46231,0.33755 -1.71033,0.45353 -4.88,0.45353 H 283.2 v 5.71685 c 0,7.62276 -0.153,7.40316 5.15777,7.40316 3.64115,0 3.87031,0.039 4.61677,0.78545 0.76329,0.76329 0.78546,0.91932 0.78546,5.5288 0,6.64963 0.56699,6.17284 -7.29814,6.13713 -3.98663,-0.0181 -6.8309,-0.17605 -7.74186,-0.42993 z m -161.13884,-40.315 c -0.56205,-0.41039 -0.63084,-0.94121 -0.72288,-5.57828 C 116.72137,121.47069 116.22373,121.92 124,121.92 c 7.703,0 7.2,-0.43593 7.2,6.24 0,6.6712 0.49331,6.24 -7.13884,6.24 -4.55047,0 -5.99755,-0.10128 -6.48,-0.45354 z"
     id="path56"
     inkscape:connector-curvature="0" />
</svg>
