<?xml version="1.0" encoding="UTF-8" standalone="no"?>
<!-- Created with Inkscape (http://www.inkscape.org/) -->

<svg
   xmlns:dc="http://purl.org/dc/elements/1.1/"
   xmlns:cc="http://creativecommons.org/ns#"
   xmlns:rdf="http://www.w3.org/1999/02/22-rdf-syntax-ns#"
   xmlns:svg="http://www.w3.org/2000/svg"
   xmlns="http://www.w3.org/2000/svg"
   xmlns:sodipodi="http://sodipodi.sourceforge.net/DTD/sodipodi-0.dtd"
   xmlns:inkscape="http://www.inkscape.org/namespaces/inkscape"
   version="1.1"
   id="svg58"
   width="400"
   height="313.60001"
   viewBox="0 0 400 313.60001"
   sodipodi:docname="Imaging.svg"
   inkscape:version="0.92.4 (5da689c313, 2019-01-14)">
  <metadata
     id="metadata64">
    <rdf:RDF>
      <cc:Work
         rdf:about="">
        <dc:format>image/svg+xml</dc:format>
        <dc:type
           rdf:resource="http://purl.org/dc/dcmitype/StillImage" />
        <dc:title></dc:title>
      </cc:Work>
    </rdf:RDF>
  </metadata>
  <defs
     id="defs62" />
  <sodipodi:namedview
     pagecolor="#ffffff"
     bordercolor="#666666"
     borderopacity="1"
     objecttolerance="10"
     gridtolerance="10"
     guidetolerance="10"
     inkscape:pageopacity="0"
     inkscape:pageshadow="2"
     inkscape:window-width="1366"
     inkscape:window-height="705"
     id="namedview60"
     showgrid="false"
     inkscape:pagecheckerboard="true"
     inkscape:zoom="1.42"
     inkscape:cx="173.61484"
     inkscape:cy="173.32826"
     inkscape:window-x="-8"
     inkscape:window-y="-8"
     inkscape:window-maximized="1"
     inkscape:current-layer="svg58" />
  <path
     style="fill:#fefefe;stroke-width:0.31999999"
     d="M 201.98559,190.05428 C 194.06803,188.83338 188.8,183.71372 188.8,177.24007 c 0,-2.76797 0.18115,-2.84103 7.0312,-2.8357 3.08484,0.003 5.93117,0.0908 6.32518,0.19638 0.39401,0.1056 1.00855,0.66474 1.36564,1.24252 0.99122,1.60383 2.13466,2.2134 4.15798,2.21664 2.06141,0.003 4.4667,-1.02357 5.27027,-2.24996 0.54725,-0.83521 1.07132,-3.96994 0.6637,-3.96994 -0.12934,0 -0.6174,0.27191 -1.08457,0.60425 -1.55243,1.10439 -4.11035,1.63575 -7.8744,1.63575 -7.41618,0 -12.06422,-2.57394 -14.73541,-8.16 -1.42617,-2.98245 -1.75959,-5.07584 -1.75959,-11.04759 0,-7.46715 1.0228,-10.83434 4.38179,-14.42537 2.74444,-2.93403 6.89496,-4.43687 12.25821,-4.43852 3.3917,-9.6e-4 5.68213,0.49553 7.83456,1.69855 1.0464,0.58484 1.44544,0.68659 1.44544,0.36854 0,-0.24163 0.32004,-0.66349 0.7112,-0.93747 1.04187,-0.72976 10.97573,-0.72976 12.0176,0 l 0.7112,0.49815 v 19.59462 c 0,16.57203 -0.0757,19.88513 -0.49053,21.4779 -1.39302,5.34816 -5.24348,8.98763 -11.35175,10.72969 -2.78628,0.79464 -10.33161,1.13398 -13.69213,0.61577 z m 7.90103,-28.95826 c 1.2711,-0.50859 2.56351,-2.01859 3.2155,-3.75685 0.59432,-1.58451 0.40152,-3.80581 -0.48469,-5.58418 -2.79554,-5.60993 -10.37743,-3.3343 -10.37743,3.11469 0,4.94396 3.57544,7.85531 7.64662,6.22634 z m 102.81897,28.95826 c -7.91756,-1.2209 -13.18559,-6.34056 -13.18559,-12.81421 0,-2.76797 0.18115,-2.84103 7.0312,-2.8357 3.08484,0.003 5.93117,0.0908 6.32518,0.19638 0.39401,0.1056 1.00855,0.66474 1.36564,1.24252 0.99122,1.60383 2.13466,2.2134 4.15798,2.21664 2.06141,0.003 4.46669,-1.02357 5.27027,-2.24996 0.54723,-0.83521 1.07133,-3.96994 0.66371,-3.96994 -0.12934,0 -0.6174,0.27191 -1.08457,0.60425 -1.55245,1.10439 -4.11036,1.63575 -7.87441,1.63575 -7.41618,0 -12.06422,-2.57394 -14.73541,-8.16 -1.42617,-2.98245 -1.75959,-5.07584 -1.75959,-11.04759 0,-7.46715 1.0228,-10.83434 4.38179,-14.42537 2.74444,-2.93403 6.89496,-4.43687 12.25821,-4.43852 3.3917,-9.6e-4 5.68211,0.49553 7.83456,1.69855 1.0464,0.58484 1.44544,0.68659 1.44544,0.36854 0,-0.24163 0.32003,-0.66349 0.7112,-0.93747 1.04186,-0.72976 10.97574,-0.72976 12.0176,0 l 0.7112,0.49815 v 19.59462 c 0,16.57203 -0.0757,19.88513 -0.49053,21.4779 -1.39302,5.34816 -5.24349,8.98763 -11.35174,10.72969 -2.78631,0.79464 -10.33162,1.13398 -13.69214,0.61577 z m 7.90103,-28.95826 c 1.27111,-0.50859 2.56352,-2.01859 3.21549,-3.75685 0.59434,-1.58451 0.40154,-3.80581 -0.48467,-5.58418 -2.79555,-5.60993 -10.37744,-3.3343 -10.37744,3.11469 0,4.94396 3.57544,7.85531 7.64662,6.22634 z m -165.91804,14.10855 c -3.91655,-0.85208 -6.75834,-2.99099 -8.24463,-6.2054 -0.57843,-1.25095 -0.68395,-2.07163 -0.68395,-5.31916 0,-4.36792 0.40031,-5.52031 2.72517,-7.84518 2.58245,-2.58244 6.76115,-4.12291 15.19103,-5.60011 2.63792,-0.46225 4.8439,-0.88815 4.90218,-0.94643 0.23726,-0.23726 -0.75413,-1.42563 -1.45619,-1.74551 -1.30691,-0.59547 -2.72925,-0.38853 -4.24219,0.61722 l -1.44,0.95727 -6.24,-0.004 c -3.432,-0.002 -6.456,-0.14044 -6.72,-0.30777 -0.7064,-0.44774 -0.55878,-3.40342 0.24906,-4.98692 0.77221,-1.51365 3.19361,-3.85344 5.19562,-5.0205 0.78943,-0.46019 2.58732,-1.23915 3.99532,-1.73103 2.39874,-0.83797 2.8926,-0.89472 7.84,-0.90091 4.57158,-0.006 5.58232,0.0885 7.53329,0.70234 4.68376,1.47364 7.84875,4.38125 9.10524,8.36476 0.59919,1.89965 0.64147,2.91317 0.64147,15.376 0,9.95068 -0.0976,13.43991 -0.384,13.7263 -0.27204,0.27203 -2.17803,0.384 -6.53714,0.384 -5.1671,0 -6.23373,-0.0806 -6.656,-0.50286 -0.27658,-0.27658 -0.50286,-0.69536 -0.50286,-0.93063 0,-0.29006 -0.69533,-0.0718 -2.16,0.67791 -3.25811,1.66779 -7.94154,2.14734 -12.11142,1.24013 z m 11.0285,-11.93553 c 0.7903,-0.4916 1.75414,-1.47934 2.21919,-2.27424 l 0.82212,-1.40522 -1.5792,0.21817 c -4.89967,0.67687 -7.01919,1.60557 -7.01919,3.07555 0,1.77892 2.98434,1.98608 5.55708,0.38574 z M 60.695434,174.14126 C 60.204806,173.59912 60.16,171.52743 60.16,149.3844 c 0,-23.11812 0.0257,-24.18845 0.592845,-24.70172 0.520166,-0.47074 1.372326,-0.52586 6.950825,-0.4496 l 6.357978,0.0869 0.404458,0.8 c 0.589459,1.16593 0.589449,47.47411 -1e-5,48.64001 l -0.404474,0.8 -6.415379,0.0864 c -5.897773,0.0795 -6.458579,0.0387 -6.950809,-0.50519 z m 22.04271,-0.13246 C 82.302038,173.38618 82.24,171.11992 82.24,155.81196 c 0,-17.20521 0.01062,-17.49917 0.663226,-18.3288 L 83.566451,136.64 H 89.28 c 5.713312,0 5.713574,4e-5 6.342829,0.8 0.755312,0.96023 0.841472,0.9687 1.934841,0.19015 1.690346,-1.20364 4.35903,-1.72037 8.01776,-1.55247 4.13476,0.18975 6.37155,0.96147 8.60375,2.96841 l 1.57014,1.41169 0.66737,-0.71039 c 1.15026,-1.22439 3.97951,-2.74214 6.13931,-3.29343 2.85764,-0.72941 8.08836,-0.49586 10.61281,0.47387 4.82275,1.85257 7.54717,5.84619 8.26558,12.1162 0.1762,1.53779 0.32154,7.62393 0.32299,13.52477 0.002,9.1954 -0.0686,10.83045 -0.49552,11.44 -0.48487,0.69225 -0.65922,0.71121 -6.54186,0.71121 -5.88264,0 -6.05699,-0.0189 -6.54186,-0.71121 -0.4261,-0.60834 -0.49814,-2.21829 -0.49814,-11.13219 0,-10.17057 -0.0173,-10.45531 -0.72,-11.8488 -1.92766,-3.82268 -6.64767,-3.00899 -7.57296,1.30553 -0.20696,0.96498 -0.34704,5.60683 -0.34704,11.49956 0,8.55642 -0.0674,9.94882 -0.50286,10.38425 -0.42065,0.42065 -1.45384,0.50206 -6.32,0.49796 -3.19942,-0.003 -6.03314,-0.14124 -6.29714,-0.30786 -0.40618,-0.25637 -0.50461,-1.99037 -0.64,-11.2751 -0.15012,-10.29432 -0.20081,-11.04994 -0.82065,-12.23149 -0.84446,-1.60972 -2.58924,-2.57257 -4.13593,-2.28241 -1.507554,0.28282 -2.957666,1.58155 -3.352274,3.00232 -0.191876,0.69085 -0.328317,5.42505 -0.32936,11.42823 -0.0016,8.75607 -0.07434,10.35239 -0.49993,10.96 -0.485642,0.69335 -0.653875,0.71121 -6.701856,0.71121 -6.047981,0 -6.216214,-0.0179 -6.701856,-0.71121 z m 151.679996,0 c -0.4361,-0.62262 -0.49814,-2.88888 -0.49814,-18.19684 0,-17.20521 0.0106,-17.49917 0.66323,-18.3288 l 0.66322,-0.84316 h 5.89678 c 5.4701,0 5.94308,0.0463 6.53677,0.64 0.62456,0.62457 0.64,1.06667 0.64,18.3288 0,15.49184 -0.0619,17.77713 -0.49814,18.4 -0.48565,0.69335 -0.65388,0.71121 -6.70186,0.71121 -6.04798,0 -6.21621,-0.0179 -6.70186,-0.71121 z m 20.8,0 c -0.4361,-0.62262 -0.49814,-2.88888 -0.49814,-18.19684 0,-17.20521 0.0106,-17.49917 0.66323,-18.3288 l 0.66322,-0.84316 h 5.71355 5.71355 l 0.67183,0.85409 0.67182,0.8541 1.21699,-0.68399 c 4.06176,-2.28284 12.39942,-2.20626 16.73546,0.15371 3.35389,1.82542 5.76555,5.25431 6.71129,9.54209 0.62378,2.82809 0.62367,26.07699 -1.2e-4,26.82991 -0.38098,0.45985 -1.25438,0.5301 -6.59041,0.5301 -5.5528,0 -6.20274,-0.0569 -6.68081,-0.5852 -0.46868,-0.51788 -0.5298,-1.72345 -0.53139,-10.48 -10e-4,-6.23183 -0.13259,-10.36598 -0.35513,-11.16759 -0.52545,-1.89269 -2.36223,-3.57589 -4.20344,-3.852 -2.30287,-0.34534 -4.23431,0.70694 -5.23254,2.85077 -0.75025,1.61125 -0.76089,1.77457 -0.76397,11.72281 -0.003,8.60976 -0.0762,10.19306 -0.50127,10.8 -0.48565,0.69335 -0.65388,0.71121 -6.70186,0.71121 -6.04798,0 -6.21621,-0.0179 -6.70186,-0.71121 z m -20.51698,-40.06234 c -0.56205,-0.41039 -0.63084,-0.94121 -0.72288,-5.57828 -0.13691,-6.89749 -0.63455,-6.44818 7.14172,-6.44818 7.703,0 7.2,-0.43593 7.2,6.24 0,6.6712 0.49331,6.24 -7.13884,6.24 -4.55047,0 -5.99755,-0.10128 -6.48,-0.45354 z"
     id="path74"
     inkscape:connector-curvature="0" />
</svg>
