<?xml version="1.0" encoding="UTF-8" standalone="no"?>
<!-- Created with Inkscape (http://www.inkscape.org/) -->

<svg
   xmlns:dc="http://purl.org/dc/elements/1.1/"
   xmlns:cc="http://creativecommons.org/ns#"
   xmlns:rdf="http://www.w3.org/1999/02/22-rdf-syntax-ns#"
   xmlns:svg="http://www.w3.org/2000/svg"
   xmlns="http://www.w3.org/2000/svg"
   xmlns:sodipodi="http://sodipodi.sourceforge.net/DTD/sodipodi-0.dtd"
   xmlns:inkscape="http://www.inkscape.org/namespaces/inkscape"
   version="1.1"
   id="svg76"
   width="400"
   height="313.60001"
   viewBox="0 0 400 313.60001"
   sodipodi:docname="maldi_mat.svg"
   inkscape:version="0.92.4 (5da689c313, 2019-01-14)">
  <metadata
     id="metadata82">
    <rdf:RDF>
      <cc:Work
         rdf:about="">
        <dc:format>image/svg+xml</dc:format>
        <dc:type
           rdf:resource="http://purl.org/dc/dcmitype/StillImage" />
        <dc:title></dc:title>
      </cc:Work>
    </rdf:RDF>
  </metadata>
  <defs
     id="defs80" />
  <sodipodi:namedview
     pagecolor="#ffffff"
     bordercolor="#666666"
     borderopacity="1"
     objecttolerance="10"
     gridtolerance="10"
     guidetolerance="10"
     inkscape:pageopacity="0"
     inkscape:pageshadow="2"
     inkscape:window-width="1366"
     inkscape:window-height="705"
     id="namedview78"
     showgrid="false"
     inkscape:pagecheckerboard="true"
     inkscape:zoom="1.42"
     inkscape:cx="185.46124"
     inkscape:cy="160.53346"
     inkscape:window-x="-8"
     inkscape:window-y="-8"
     inkscape:window-maximized="1"
     inkscape:current-layer="svg76" />
  <path
     style="fill:#fefefe;stroke-width:0.31999999"
     d="m 155.64858,206.88457 c -3.91655,-0.85208 -6.75834,-2.99099 -8.24463,-6.2054 -0.57843,-1.25095 -0.68395,-2.07163 -0.68395,-5.31916 0,-4.36792 0.40031,-5.52031 2.72517,-7.84518 2.58245,-2.58244 6.76115,-4.1229 15.19103,-5.60011 2.63792,-0.46225 4.8439,-0.88814 4.90218,-0.94643 0.23726,-0.23726 -0.75413,-1.42563 -1.45619,-1.74551 -1.30691,-0.59547 -2.72925,-0.38852 -4.24219,0.61723 l -1.44,0.95726 -6.24,-0.004 c -3.432,-0.002 -6.456,-0.14044 -6.72,-0.30777 -0.7064,-0.44774 -0.55878,-3.40341 0.24906,-4.98692 0.77221,-1.51365 3.19361,-3.85344 5.19562,-5.0205 0.78943,-0.46019 2.58732,-1.23915 3.99532,-1.73103 2.39874,-0.83797 2.8926,-0.89472 7.84,-0.90091 4.57158,-0.006 5.58232,0.0885 7.53329,0.70234 4.68376,1.47364 7.84875,4.38125 9.10524,8.36476 0.59919,1.89966 0.64147,2.91318 0.64147,15.376 0,9.95068 -0.0976,13.43991 -0.384,13.7263 -0.27204,0.27203 -2.17803,0.384 -6.53714,0.384 -5.1671,0 -6.23373,-0.0806 -6.656,-0.50286 -0.27658,-0.27658 -0.50286,-0.69536 -0.50286,-0.93063 0,-0.29006 -0.69533,-0.0718 -2.16,0.67791 -3.25811,1.66779 -7.94154,2.14734 -12.11142,1.24013 z m 11.0285,-11.93553 c 0.7903,-0.4916 1.75414,-1.47934 2.21919,-2.27424 l 0.82212,-1.40522 -1.5792,0.21817 c -4.89967,0.67687 -7.01919,1.60557 -7.01919,3.07555 0,1.77892 2.98434,1.98608 5.55708,0.38574 z M 83.698144,205.6888 C 83.262038,205.06618 83.2,202.79992 83.2,187.49196 c 0,-17.20521 0.01062,-17.49917 0.663226,-18.3288 l 0.663225,-0.84315 H 90.24 c 5.713312,0 5.713574,3e-5 6.342829,0.8 0.755312,0.96022 0.841472,0.96869 1.934841,0.19014 1.69035,-1.20364 4.35903,-1.72037 8.01776,-1.55246 4.13476,0.18974 6.37155,0.96146 8.60375,2.96841 l 1.57014,1.41168 0.66737,-0.71039 c 1.15026,-1.22439 3.97951,-2.74214 6.13931,-3.29343 2.85764,-0.72941 8.08836,-0.49586 10.61281,0.47387 4.82275,1.85257 7.54717,5.84619 8.26558,12.1162 0.1762,1.53779 0.32154,7.62393 0.32299,13.52477 0.002,9.1954 -0.0686,10.83045 -0.49552,11.44 -0.48487,0.69225 -0.65922,0.71121 -6.54186,0.71121 -5.88264,0 -6.05699,-0.019 -6.54186,-0.71121 -0.4261,-0.60834 -0.49814,-2.21829 -0.49814,-11.13219 0,-10.17057 -0.0173,-10.4553 -0.72,-11.8488 -1.92766,-3.82268 -6.64767,-3.00899 -7.57296,1.30553 C 120.14008,184.97833 120,189.62018 120,195.5129 c 0,8.55642 -0.0674,9.94882 -0.50286,10.38425 -0.42065,0.42065 -1.45384,0.50206 -6.32,0.49796 -3.19942,-0.003 -6.03314,-0.14123 -6.29714,-0.30786 -0.40618,-0.25637 -0.50461,-1.99037 -0.64,-11.2751 -0.15012,-10.29432 -0.20081,-11.04994 -0.82065,-12.23149 -0.84446,-1.60972 -2.58924,-2.57257 -4.13593,-2.28241 -1.507554,0.28282 -2.957666,1.58155 -3.352274,3.00233 -0.191876,0.69084 -0.328317,5.42504 -0.32936,11.42822 -0.0016,8.75607 -0.07434,10.35239 -0.49993,10.96 -0.485642,0.69335 -0.653875,0.71121 -6.701856,0.71121 -6.047981,0 -6.216214,-0.0179 -6.701856,-0.71121 z M 204.48,205.94146 c -3.62412,-1.01004 -6.7114,-3.40278 -8.21242,-6.36491 -1.34137,-2.64705 -1.69594,-5.20876 -1.70202,-12.29654 l -0.006,-6.48 h -3.02186 c -4.07687,0 -4.01814,0.0923 -4.01814,-6.31121 0,-6.2024 -0.0227,-6.16879 4.16,-6.16879 h 2.88 v -5.93455 c 0,-7.96804 -0.4402,-7.50546 7.1423,-7.50546 5.15188,0 5.63488,0.0499 6.41454,0.66323 l 0.84316,0.66323 v 6.05677 6.05678 h 4.29677 c 4.29487,0 4.29708,3.2e-4 4.9815,0.87048 0.64362,0.81823 0.67864,1.16561 0.58323,5.78647 -0.0915,4.4303 -0.16287,4.96078 -0.72266,5.36951 -0.46231,0.33755 -1.71033,0.45354 -4.88,0.45354 H 208.96 v 5.71684 c 0,7.62277 -0.153,7.40316 5.15777,7.40316 3.64115,0 3.87031,0.039 4.61677,0.78545 0.76329,0.76329 0.78546,0.91932 0.78546,5.5288 0,6.64963 0.56699,6.17284 -7.29814,6.13713 -3.98663,-0.0181 -6.8309,-0.17605 -7.74186,-0.42993 z m 19.69814,-0.25266 c -0.4361,-0.62262 -0.49814,-2.88888 -0.49814,-18.19684 0,-17.25327 0.009,-17.49695 0.66894,-18.33607 l 0.66894,-0.85042 5.64482,0.0873 5.64482,0.0873 0.62884,0.96009 0.62883,0.96009 1.45741,-0.71687 c 2.04945,-1.00807 4.3167,-1.36331 8.70108,-1.36331 5.25641,0 5.07632,-0.2253 5.07632,6.3504 0,6.46245 0.28855,6.12897 -5.3052,6.13138 -2.27414,9.6e-4 -4.67874,0.15284 -5.34355,0.33746 -1.64569,0.45701 -3.34637,2.02378 -3.74169,3.44708 -0.18782,0.67621 -0.32675,5.24639 -0.32777,10.78247 -0.002,8.17681 -0.076,9.71479 -0.49993,10.32 -0.48565,0.69335 -0.65388,0.71121 -6.70186,0.71121 -6.04798,0 -6.21621,-0.0179 -6.70186,-0.71121 z m 32.32,0 C 256.06204,205.06618 256,202.79992 256,187.49196 c 0,-17.20521 0.0106,-17.49917 0.66323,-18.3288 l 0.66322,-0.84315 h 5.89678 c 5.4701,0 5.94308,0.0463 6.53677,0.64 0.62456,0.62456 0.64,1.06666 0.64,18.32879 0,15.49184 -0.0619,17.77713 -0.49814,18.4 -0.48565,0.69335 -0.65388,0.71121 -6.70186,0.71121 -6.04798,0 -6.21621,-0.0179 -6.70186,-0.71121 z m 17.75312,0.0922 c -0.18219,-0.34043 -0.32982,-1.16843 -0.32805,-1.84 0.003,-1.09726 0.61887,-2.00793 6.07707,-8.98417 l 6.07386,-7.76313 -5.91707,-7.53887 c -5.57832,-7.10727 -5.91707,-7.61721 -5.91707,-8.90727 0,-2.37749 0.16441,-2.42759 7.96623,-2.42759 3.73772,0 7.0493,0.13564 7.35908,0.30143 0.30977,0.16579 1.6869,1.74979 3.06028,3.52 1.37339,1.77021 2.60387,3.21857 2.73441,3.21857 0.13054,0 1.36102,-1.44836 2.73441,-3.21857 1.37338,-1.77021 2.75051,-3.35421 3.06028,-3.52 0.30978,-0.16579 3.5967,-0.30143 7.30427,-0.30143 6.31437,0 6.78155,0.0405 7.38104,0.64 0.41988,0.41988 0.64,1.06666 0.64,1.88056 0,1.1127 -0.5201,1.91244 -5.04657,7.76 -2.77562,3.58569 -5.45183,7.05304 -5.94714,7.70522 l -0.90057,1.18579 5.94714,7.56095 c 5.80682,7.38256 5.94714,7.59657 5.94714,9.07022 0,0.83009 -0.1728,1.68206 -0.384,1.89326 -0.27576,0.27575 -2.39984,0.384 -7.53528,0.384 h -7.15128 l -0.77015,-0.83101 c -0.42358,-0.45705 -1.81234,-2.16915 -3.08614,-3.80466 l -2.31599,-2.97365 -1.28916,1.64466 c -0.70903,0.90456 -2.05553,2.61666 -2.9922,3.80466 l -1.70306,2.16 h -7.33511 c -6.9245,0 -7.35366,-0.0346 -7.66637,-0.61897 z m -17.4701,-40.15458 c -0.56205,-0.41039 -0.63084,-0.94121 -0.72288,-5.57828 C 255.92137,153.15069 255.42373,153.6 263.2,153.6 c 7.703,0 7.2,-0.43593 7.2,6.24001 0,6.67119 0.49331,6.24 -7.13884,6.24 -4.55047,0 -5.99755,-0.10129 -6.48,-0.45355 z M 90.129597,122.29481 C 89.646643,121.76115 89.6,119.58132 89.6,97.5444 c 0,-23.004462 0.0281,-24.190644 0.585197,-24.694801 0.500102,-0.452589 1.445286,-0.529597 6.500131,-0.529597 h 5.914932 l 0.83133,0.88 c 0.45724,0.484 3.16442,4.876 6.01596,9.760001 2.85154,4.884 5.2902,8.879997 5.41924,8.879997 0.12904,0 2.5248,-3.922788 5.32391,-8.717309 2.79912,-4.794522 5.50022,-9.186522 6.00245,-9.760001 l 0.91315,-1.042688 h 5.99725 c 5.40365,0 6.04968,0.05792 6.52685,0.585197 0.48296,0.533658 0.5296,2.713488 0.5296,24.750401 0,23.00447 -0.0281,24.19065 -0.5852,24.69481 -0.50252,0.45477 -1.46896,0.52959 -6.84082,0.52959 -5.42584,0 -6.31387,-0.0701 -6.6948,-0.52865 -0.34458,-0.41478 -0.47364,-2.76376 -0.59918,-10.90529 l -0.16,-10.37665 -2.64006,4.62616 c -1.45203,2.54439 -2.87816,4.82377 -3.16918,5.0653 -0.3874,0.32151 -1.62117,0.43913 -4.60635,0.43913 -3.42294,0 -4.17581,-0.0892 -4.69164,-0.55604 -0.33793,-0.30582 -1.75705,-2.58369 -3.15359,-5.06192 l -2.53918,-4.50589 -0.16,10.37334 c -0.12553,8.13878 -0.2546,10.48721 -0.59918,10.90193 -0.38115,0.45873 -1.27321,0.52858 -6.750407,0.52858 -5.707811,0 -6.361856,-0.0559 -6.840816,-0.58519 z M 144.704,122.496 c -0.93743,-0.93742 -0.27628,-3.20252 7.48787,-25.65352 5.93933,-17.174292 8.07515,-22.978516 8.69987,-23.642478 l 0.828,-0.88 h 7.88026 7.88026 l 0.82402,0.88 c 1.05759,1.12945 16.57572,45.766468 16.57572,47.679128 0,0.67808 -0.1728,1.40567 -0.384,1.61687 -0.27281,0.27281 -2.21867,0.384 -6.72,0.384 -5.77014,0 -6.38962,-0.0536 -6.93643,-0.60042 -0.33023,-0.33024 -1.06211,-1.98624 -1.62639,-3.68001 L 178.18722,115.52 H 169.6 161.01278 l -1.02596,3.07957 c -0.56428,1.69377 -1.29616,3.34977 -1.62639,3.68001 -0.54681,0.5468 -1.16629,0.60042 -6.93643,0.60042 -4.50133,0 -6.44719,-0.11119 -6.72,-0.384 z M 171.92302,96.8 c -1.17374,-3.432 -2.23615,-6.24 -2.36092,-6.24 -0.12477,0 -1.16416,2.808 -2.30975,6.24 l -2.08291,6.24 h 4.44383 4.44383 z m 27.64658,25.49481 c -0.48296,-0.53366 -0.5296,-2.71349 -0.5296,-24.75041 0,-23.118119 0.0257,-24.188452 0.59284,-24.701722 0.52017,-0.470743 1.37233,-0.525863 6.95083,-0.449597 l 6.35798,0.08692 0.40446,0.8 c 0.31149,0.616125 0.40554,4.937194 0.40917,18.799999 l 0.005,18 h 10.89454 10.89455 l 0.78545,0.78546 c 0.7656,0.76559 0.78546,0.90944 0.78546,5.6888 0,3.92 -0.0999,5.04597 -0.49814,5.61454 l -0.49815,0.7112 h -18.01226 c -17.04358,0 -18.04074,-0.0314 -18.54185,-0.58519 z m 42.56,0 C 241.64664,121.76115 241.6,119.58132 241.6,97.5444 c 0,-23.317028 0.0213,-24.184478 0.60672,-24.714282 0.55655,-0.503671 1.70114,-0.540784 13.84,-0.448768 l 13.23328,0.100313 2.56,0.90329 c 3.73022,1.316198 5.46686,2.349885 8.04494,4.788512 1.66728,1.577101 2.64904,2.85024 3.57802,4.64 2.03659,3.923619 2.33345,5.439351 2.52506,12.892335 0.25822,10.04423 -0.47176,13.89281 -3.49146,18.40764 -2.66385,3.98278 -6.85035,6.82573 -11.98553,8.13909 -2.23472,0.57154 -3.58536,0.62747 -15.15262,0.62747 -11.8964,0 -12.7327,-0.037 -13.22881,-0.58519 z m 24.06995,-12.71244 c 2.2936,-0.68112 4.01142,-2.43363 4.69696,-4.79178 0.42339,-1.45643 0.49996,-2.95134 0.40629,-7.93261 -0.10446,-5.55517 -0.1814,-6.26239 -0.81026,-7.448275 -1.7177,-3.239184 -4.22311,-4.289702 -10.23062,-4.289702 H 256.32 V 97.6 110.08 h 4.10192 c 2.77905,0 4.64234,-0.16048 5.77763,-0.49763 z m 26.81588,12.71889 C 292.52481,121.75912 292.48,119.68743 292.48,97.5444 c 0,-23.118119 0.0257,-24.188452 0.59284,-24.701722 0.52017,-0.470743 1.37233,-0.525863 6.95083,-0.449597 l 6.35798,0.08692 0.40446,0.8 c 0.58945,1.165924 0.58945,47.474109 -1e-5,48.639999 l -0.40448,0.8 -6.41538,0.0864 c -5.89777,0.0795 -6.45858,0.0387 -6.95081,-0.50519 z"
     id="path86"
     inkscape:connector-curvature="0" />
</svg>
