<?xml version="1.0" encoding="UTF-8" standalone="no"?>
<!-- Created with Inkscape (http://www.inkscape.org/) -->

<svg
   xmlns:dc="http://purl.org/dc/elements/1.1/"
   xmlns:cc="http://creativecommons.org/ns#"
   xmlns:rdf="http://www.w3.org/1999/02/22-rdf-syntax-ns#"
   xmlns:svg="http://www.w3.org/2000/svg"
   xmlns="http://www.w3.org/2000/svg"
   xmlns:sodipodi="http://sodipodi.sourceforge.net/DTD/sodipodi-0.dtd"
   xmlns:inkscape="http://www.inkscape.org/namespaces/inkscape"
   version="1.1"
   id="svg140"
   width="400"
   height="313.60001"
   viewBox="0 0 400 313.60001"
   sodipodi:docname="price_list_download.svg"
   inkscape:version="0.92.4 (5da689c313, 2019-01-14)">
  <metadata
     id="metadata146">
    <rdf:RDF>
      <cc:Work
         rdf:about="">
        <dc:format>image/svg+xml</dc:format>
        <dc:type
           rdf:resource="http://purl.org/dc/dcmitype/StillImage" />
        <dc:title></dc:title>
      </cc:Work>
    </rdf:RDF>
  </metadata>
  <defs
     id="defs144" />
  <sodipodi:namedview
     pagecolor="#ffffff"
     bordercolor="#666666"
     borderopacity="1"
     objecttolerance="10"
     gridtolerance="10"
     guidetolerance="10"
     inkscape:pageopacity="0"
     inkscape:pageshadow="2"
     inkscape:window-width="1366"
     inkscape:window-height="705"
     id="namedview142"
     showgrid="false"
     inkscape:pagecheckerboard="true"
     inkscape:zoom="1.42"
     inkscape:cx="193.24571"
     inkscape:cy="176.73107"
     inkscape:window-x="-8"
     inkscape:window-y="-8"
     inkscape:window-maximized="1"
     inkscape:current-layer="svg140" />
  <path
     style="fill:#fefefe;stroke-width:0.31999999"
     d="m 204.01793,287.52234 c -0.97104,-0.34592 -4.05928,-3.23889 -13.39275,-12.54596 -8.00153,-7.9789 -12.335,-12.53207 -12.73091,-13.37637 -1.49799,-3.19456 -0.2316,-7.4912 2.64984,-8.99041 1.0417,-0.542 5.42702,-0.60709 6.43693,-0.0956 0.38443,0.19472 3.54296,3.18137 7.01896,6.637 l 6.32,6.28296 0.005,-26.077 0.005,-26.077 0.72126,-1.27348 c 1.08146,-1.90946 2.74609,-2.71483 5.62464,-2.72126 2.88829,-0.006 4.53027,0.78616 5.67495,2.73941 l 0.76862,1.31156 v 26.04888 26.04889 l 6.32,-6.28296 c 3.476,-3.45563 6.63453,-6.44228 7.01896,-6.637 0.97785,-0.4953 5.03074,-0.44214 6.28626,0.0824 1.38167,0.57729 2.67236,2.15596 3.1216,3.81806 0.43442,1.60732 0.21415,4.27924 -0.45751,5.54944 -0.2664,0.50381 -6.00248,6.41163 -12.74684,13.1285 -10.35666,10.31445 -12.4614,12.26623 -13.54247,12.55822 -1.71684,0.46371 -3.57092,0.41705 -5.10207,-0.12838 z M 150.3596,247.66823 c -11.03086,-1.28845 -20.94834,-8.91152 -25.0355,-19.24355 -1.75448,-4.43518 -1.9641,-5.74413 -1.9641,-12.26467 0,-5.40038 0.0827,-6.36616 0.73936,-8.64 0.91022,-3.15157 3.04523,-7.72164 4.87692,-10.43924 2.89871,-4.30067 7.7472,-8.64434 12.06372,-10.80764 l 2,-1.00234 0.006,-3.27539 c 0.0111,-6.54642 1.87737,-11.4398 5.88038,-15.41847 3.8857,-3.86208 7.9097,-5.58414 13.66929,-5.84975 6.77198,-0.31231 11.91391,1.55655 16.18357,5.882 3.45606,3.50122 5.83505,8.90292 5.85565,13.29577 0.007,1.55277 0.52835,2.64418 1.51433,3.17186 0.74028,0.39619 0.86661,0.35043 1.7443,-0.63188 0.88886,-0.9948 0.93288,-1.16891 0.7262,-2.87196 -0.73361,-6.04494 -3.46806,-11.67856 -7.62998,-15.71959 -0.84521,-0.82066 -1.46931,-1.71803 -1.46931,-2.11267 0,-0.3897 0.95004,-1.7777 2.19946,-3.21337 11.4401,-13.1455 30.90893,-18.41118 47.72054,-12.90686 10.38988,3.40177 19.8938,11.77396 24.79371,21.84127 2.55425,5.24795 3.72861,9.28856 4.49188,15.45512 l 0.2026,1.63687 -5.86409,0.14786 c -5.93348,0.14962 -6.96062,0.34719 -7.85392,1.51067 -0.53826,0.70106 -0.50354,1.12154 0.16029,1.94133 0.55731,0.68825 0.75108,0.70581 8.4,0.76109 l 7.82953,0.0566 3.11793,1.07408 c 9.76146,3.36269 17.22777,11.87369 19.32882,22.03328 0.65951,3.18903 0.44653,11.77139 -0.36333,14.64136 -2.25217,7.98121 -7.8734,14.66905 -15.36342,18.27859 -5.91651,2.85124 -7.48859,3.00141 -31.421,3.00141 h -19.5978 l -0.0906,-17.20729 -0.0906,-17.2073 -1.0431,-2.11827 c -1.91022,-3.87917 -5.4715,-6.19213 -9.5169,-6.18096 -1.93283,0.005 -2.51738,0.15572 -4.2627,1.09668 -2.25345,1.21491 -4.09789,3.11607 -5.22712,5.3879 l -0.75018,1.50924 -0.0905,17.36 -0.0905,17.36 -21.82949,-0.0421 c -12.00622,-0.0231 -22.78367,-0.15351 -23.94989,-0.28972 z m 9.17183,-134.40178 c -7.83059,-1.23315 -13.5889,-6.06626 -15.23411,-12.78645 -0.64577,-2.63773 -0.55849,-11.422714 0.13988,-14.079997 1.58601,-6.03473 6.89578,-10.611434 13.94892,-12.023127 3.36919,-0.674349 10.40202,-0.488746 13.13388,0.346611 5.61508,1.716999 9.79758,5.451344 11.20344,10.00298 0.7659,2.479705 0.8054,3.85008 0.13842,4.802333 -0.48636,0.69437 -0.64865,0.7112 -6.85858,0.7112 h -6.36043 l -1.15642,-1.411252 c -2.37856,-2.902716 -6.13427,-3.190486 -8.59336,-0.658438 -1.2804,1.318381 -1.81369,2.92797 -1.81128,5.46682 0.004,4.64036 2.09056,7.16287 5.92382,7.16287 1.85668,0 2.85764,-0.52233 4.53685,-2.36744 L 169.8826,96.96 h 5.89555 c 5.47982,0 5.955,0.0468 6.73869,0.66323 0.65721,0.51696 0.84316,0.94262 0.84316,1.93009 0,1.67856 -1.0968,4.86511 -2.25295,6.5455 -2.03973,2.96464 -6.08419,5.62766 -10.14525,6.67999 -2.38745,0.61865 -8.84819,0.89428 -11.43037,0.48764 z m 41.79858,0.0115 c -10.01274,-1.40964 -15.35595,-8.14463 -15.39885,-19.40986 -0.0246,-6.449606 1.88299,-11.653968 5.49835,-15.001152 2.31867,-2.146678 5.5191,-3.781139 8.73967,-4.463341 2.85684,-0.605155 8.31398,-0.606253 11.19082,-0.0022 8.91955,1.872682 14.24,9.344237 14.24,19.997353 0,2.01928 -0.12211,2.63016 -0.66323,3.31808 l -0.66322,0.84316 h -12.00623 -12.00623 l 0.60675,1.03891 c 1.80588,3.0921 6.1592,3.62584 9.5152,1.16663 l 1.26304,-0.92554 h 6.27296 c 4.4523,0 6.38441,0.11146 6.65696,0.384 0.2112,0.2112 0.38265,1.0392 0.381,1.84 -0.008,4.06336 -5.89954,9.23298 -12.23753,10.73869 -2.50283,0.5946 -8.704,0.8534 -11.38946,0.47533 z m 9.00808,-25.310682 c -2.19704,-3.77264 -7.27039,-3.733767 -9.2378,0.07079 l -0.47673,0.921898 h 5.14632 5.1463 l -0.57809,-0.992669 z m 88.39436,25.299622 c -7.98582,-1.25934 -13.62405,-5.62232 -13.60755,-10.52978 0.009,-2.70797 0.48645,-2.89717 7.30951,-2.89717 5.33994,0 5.45346,0.0143 6.39243,0.80437 1.22729,1.0327 2.96548,1.75563 4.22118,1.75563 1.38727,0 3.74856,-0.63391 4.14625,-1.1131 0.63592,-0.76623 -0.5712,-1.18327 -6.14568,-2.12321 -3.04072,-0.51271 -6.21442,-1.15847 -7.05266,-1.43502 -2.28691,-0.75448 -5.17672,-2.82917 -6.29741,-4.52111 -1.36616,-2.06252 -1.74359,-3.597656 -1.75238,-7.127563 -0.007,-2.666794 0.0954,-3.237204 0.83121,-4.646336 1.83332,-3.510986 5.85451,-6.133127 10.85768,-7.08009 3.76122,-0.711895 10.15749,-0.457853 13.24497,0.526057 6.76817,2.156855 10.24109,5.576381 10.0151,9.861121 -0.1319,2.5012 -0.41552,2.609814 -6.8151,2.609814 -3.91499,0 -5.30828,-0.110157 -5.92,-0.468041 -2.54523,-1.489085 -3.63087,-1.832583 -5.34318,-1.690586 -2.00161,0.16599 -2.99682,0.847523 -2.20147,1.507603 0.26811,0.222509 2.90333,0.816167 5.85606,1.319239 6.64267,1.131747 8.11637,1.569148 10.51229,3.120112 2.0145,1.30406 3.1906,2.75246 4.32542,5.32685 0.54739,1.24181 0.70198,2.22188 0.71274,4.51861 0.0122,2.56144 -0.0969,3.15905 -0.86016,4.71908 -2.33212,4.76667 -8.06705,7.45035 -16.5217,7.73138 -2.2,0.0731 -4.8584,-0.003 -5.90755,-0.16786 z M 45.335434,112.06125 C 44.844806,111.51912 44.8,109.44743 44.8,87.304403 c 0,-23.299911 0.0217,-24.18483 0.605504,-24.713182 0.556358,-0.503497 1.757645,-0.539206 14.8,-0.439955 13.833037,0.105267 14.251536,0.126886 16.434496,0.849037 3.126912,1.034416 5.226259,2.302685 7.11191,4.296483 2.663124,2.815859 3.756752,5.550026 4.12114,10.303216 C 88.467437,85.353417 85.417686,91.43757 79.538947,94.22626 75.935331,95.9357 73.323571,96.38663 66,96.56382 l -6.48,0.15678 -0.0047,7.0797 c -0.0034,5.06196 -0.119994,7.30771 -0.409187,7.8797 l -0.404474,0.8 -6.415379,0.0864 c -5.897773,0.0795 -6.458579,0.0387 -6.95081,-0.5052 z M 70.393462,83.120003 c 1.886512,-0.963962 2.726538,-2.171684 2.726538,-3.92 0,-1.748317 -0.840026,-2.956039 -2.726538,-3.920001 -1.27342,-0.650684 -1.86464,-0.72 -6.141267,-0.72 H 59.52 v 4.640001 4.64 h 4.732195 c 4.276627,0 4.867847,-0.06932 6.141267,-0.72 z M 92.658144,111.9288 C 92.222038,111.30617 92.16,109.03992 92.16,93.73196 c 0,-17.253273 0.0089,-17.49695 0.668941,-18.33607 l 0.668941,-0.850419 5.644819,0.08726 5.644819,0.08727 0.62884,0.96009 0.62883,0.960093 1.45741,-0.716864 c 2.04945,-1.008077 4.3167,-1.363319 8.70108,-1.363319 5.25641,0 5.07632,-0.225292 5.07632,6.350404 0,6.462451 0.28855,6.128966 -5.3052,6.131382 -2.27414,9.6e-4 -4.67874,0.152836 -5.34355,0.337456 -1.64569,0.457015 -3.34637,2.023783 -3.74169,3.447087 -0.18782,0.67621 -0.32675,5.24638 -0.32777,10.78247 -0.002,8.17681 -0.076,9.71479 -0.49993,10.32 -0.48565,0.69335 -0.65388,0.7112 -6.70186,0.7112 -6.047981,0 -6.216214,-0.0178 -6.701856,-0.7112 z m 32.319996,0 c -0.4361,-0.62263 -0.49814,-2.88888 -0.49814,-18.19684 0,-17.205215 0.0106,-17.49917 0.66323,-18.328802 l 0.66322,-0.843156 h 5.89678 c 5.4701,0 5.94308,0.04631 6.53677,0.64 0.62456,0.624564 0.64,1.066666 0.64,18.328798 0,15.49183 -0.0619,17.77713 -0.49814,18.4 -0.48565,0.69335 -0.65388,0.7112 -6.70186,0.7112 -6.04798,0 -6.21621,-0.0178 -6.70186,-0.7112 z m 120.96,0 C 245.49792,111.30029 245.44,108.39657 245.44,86.954256 V 62.690911 l 0.78546,-0.785453 c 0.77378,-0.773789 0.8682,-0.785456 6.35684,-0.785456 5.15188,0 5.63488,0.04994 6.41454,0.663226 l 0.84316,0.663225 v 24.385572 c 0,21.552935 -0.0579,24.468185 -0.49814,25.096775 -0.48565,0.69335 -0.65388,0.7112 -6.70186,0.7112 -6.04798,0 -6.21621,-0.0178 -6.70186,-0.7112 z m 20.8,0 c -0.4361,-0.62263 -0.49814,-2.88888 -0.49814,-18.19684 0,-17.205215 0.0106,-17.49917 0.66323,-18.328802 l 0.66322,-0.843156 h 5.89678 c 5.4701,0 5.94308,0.04631 6.53677,0.64 0.62456,0.624564 0.64,1.066666 0.64,18.328798 0,15.49183 -0.0619,17.77713 -0.49814,18.4 -0.48565,0.69335 -0.65388,0.7112 -6.70186,0.7112 -6.04798,0 -6.21621,-0.0178 -6.70186,-0.7112 z M 340.8,112.18145 c -3.62413,-1.01003 -6.71139,-3.40278 -8.21242,-6.3649 -1.34137,-2.64706 -1.69593,-5.20877 -1.70201,-12.29655 l -0.006,-6.479997 h -3.02186 c -4.07686,0 -4.01814,0.09225 -4.01814,-6.311204 0,-6.202403 -0.0227,-6.168797 4.16,-6.168797 h 2.88 v -5.934544 c 0,-7.968038 -0.44019,-7.505456 7.1423,-7.505456 5.15188,0 5.63488,0.04994 6.41453,0.663226 l 0.84317,0.663225 v 6.056775 6.056774 h 4.29677 c 4.29488,0 4.29709,3.2e-4 4.9815,0.870487 0.64362,0.818227 0.67863,1.165613 0.58323,5.786464 -0.0915,4.430301 -0.16288,4.960784 -0.72265,5.369514 -0.46231,0.337549 -1.71034,0.453536 -4.88,0.453536 H 345.28 v 5.716847 c 0,7.62276 -0.15299,7.40315 5.15776,7.40315 3.64115,0 3.8703,0.039 4.6168,0.78546 0.76326,0.76329 0.78544,0.91932 0.78544,5.5288 0,6.64963 0.56698,6.17284 -7.29814,6.13713 -3.98663,-0.0181 -6.83088,-0.17606 -7.74186,-0.42994 z M 125.26116,71.866457 c -0.56205,-0.410388 -0.63084,-0.941213 -0.72288,-5.578279 -0.13691,-6.897491 -0.63455,-6.448176 7.14172,-6.448176 7.703,0 7.2,-0.435933 7.2,6.24 0,6.671197 0.49331,6.24 -7.13884,6.24 -4.55047,0 -5.99755,-0.101283 -6.48,-0.453545 z m 141.76,0 c -0.56205,-0.410388 -0.63084,-0.941213 -0.72288,-5.578279 -0.13691,-6.897491 -0.63455,-6.448176 7.14172,-6.448176 7.703,0 7.2,-0.435933 7.2,6.24 0,6.671197 0.49331,6.24 -7.13884,6.24 -4.55047,0 -5.99755,-0.101283 -6.48,-0.453545 z"
     id="path150"
     inkscape:connector-curvature="0" />
</svg>
