<?xml version="1.0" encoding="UTF-8" standalone="no"?>
<!-- Created with Inkscape (http://www.inkscape.org/) -->

<svg
   xmlns:dc="http://purl.org/dc/elements/1.1/"
   xmlns:cc="http://creativecommons.org/ns#"
   xmlns:rdf="http://www.w3.org/1999/02/22-rdf-syntax-ns#"
   xmlns:svg="http://www.w3.org/2000/svg"
   xmlns="http://www.w3.org/2000/svg"
   xmlns:sodipodi="http://sodipodi.sourceforge.net/DTD/sodipodi-0.dtd"
   xmlns:inkscape="http://www.inkscape.org/namespaces/inkscape"
   version="1.1"
   id="svg124"
   width="400"
   height="313.60001"
   viewBox="0 0 400 313.60001"
   sodipodi:docname="catalog_download.svg"
   inkscape:version="0.92.4 (5da689c313, 2019-01-14)">
  <metadata
     id="metadata130">
    <rdf:RDF>
      <cc:Work
         rdf:about="">
        <dc:format>image/svg+xml</dc:format>
        <dc:type
           rdf:resource="http://purl.org/dc/dcmitype/StillImage" />
        <dc:title></dc:title>
      </cc:Work>
    </rdf:RDF>
  </metadata>
  <defs
     id="defs128" />
  <sodipodi:namedview
     pagecolor="#ffffff"
     bordercolor="#666666"
     borderopacity="1"
     objecttolerance="10"
     gridtolerance="10"
     guidetolerance="10"
     inkscape:pageopacity="0"
     inkscape:pageshadow="2"
     inkscape:window-width="1366"
     inkscape:window-height="705"
     id="namedview126"
     showgrid="false"
     inkscape:pagecheckerboard="true"
     inkscape:zoom="1.42"
     inkscape:cx="190.84597"
     inkscape:cy="147.25309"
     inkscape:window-x="-8"
     inkscape:window-y="-8"
     inkscape:window-maximized="1"
     inkscape:current-layer="svg124" />
  <path
     style="fill:#fefefe;stroke-width:0.31999999"
     d="m 204.01793,287.52234 c -0.97104,-0.34592 -4.05928,-3.23889 -13.39275,-12.54596 -8.00153,-7.9789 -12.335,-12.53207 -12.73091,-13.37637 -1.49799,-3.19456 -0.2316,-7.4912 2.64984,-8.99041 1.0417,-0.542 5.42702,-0.60709 6.43693,-0.0956 0.38443,0.19472 3.54296,3.18137 7.01896,6.637 l 6.32,6.28296 0.005,-26.077 0.005,-26.077 0.72126,-1.27348 c 1.08146,-1.90946 2.74609,-2.71483 5.62464,-2.72126 2.88829,-0.006 4.53027,0.78616 5.67495,2.73941 l 0.76862,1.31156 v 26.04888 26.04889 l 6.32,-6.28296 c 3.476,-3.45563 6.63453,-6.44228 7.01896,-6.637 0.97785,-0.4953 5.03074,-0.44214 6.28626,0.0824 1.38167,0.57729 2.67236,2.15596 3.1216,3.81806 0.43442,1.60732 0.21415,4.27924 -0.45751,5.54944 -0.2664,0.50381 -6.00248,6.41163 -12.74684,13.1285 -10.35666,10.31445 -12.4614,12.26623 -13.54247,12.55822 -1.71684,0.46371 -3.57092,0.41705 -5.10207,-0.12838 z M 150.3596,247.66823 c -11.03086,-1.28845 -20.94834,-8.91152 -25.0355,-19.24355 -1.75448,-4.43518 -1.9641,-5.74413 -1.9641,-12.26467 0,-5.40038 0.0827,-6.36616 0.73936,-8.64 0.91022,-3.15157 3.04523,-7.72164 4.87692,-10.43924 2.89871,-4.30067 7.7472,-8.64434 12.06372,-10.80764 l 2,-1.00234 0.006,-3.27539 c 0.0111,-6.54642 1.87737,-11.4398 5.88038,-15.41847 3.8857,-3.86208 7.9097,-5.58414 13.66929,-5.84975 6.77198,-0.31231 11.91391,1.55655 16.18357,5.882 3.45606,3.50122 5.83505,8.90292 5.85565,13.29577 0.007,1.55277 0.52835,2.64418 1.51433,3.17186 0.74028,0.39619 0.86661,0.35043 1.7443,-0.63188 0.88886,-0.9948 0.93288,-1.16891 0.7262,-2.87196 -0.73361,-6.04494 -3.46806,-11.67856 -7.62998,-15.71959 -0.84521,-0.82066 -1.46931,-1.71803 -1.46931,-2.11267 0,-0.3897 0.95004,-1.7777 2.19946,-3.21337 11.4401,-13.1455 30.90893,-18.41118 47.72054,-12.90686 10.38988,3.40177 19.8938,11.77396 24.79371,21.84127 2.55425,5.24795 3.72861,9.28856 4.49188,15.45512 l 0.2026,1.63687 -5.86409,0.14786 c -5.93348,0.14962 -6.96062,0.34719 -7.85392,1.51067 -0.53826,0.70106 -0.50354,1.12154 0.16029,1.94133 0.55731,0.68825 0.75108,0.70581 8.4,0.76109 l 7.82953,0.0566 3.11793,1.07408 c 9.76146,3.36269 17.22777,11.87369 19.32882,22.03328 0.65951,3.18903 0.44653,11.77139 -0.36333,14.64136 -2.25217,7.98121 -7.8734,14.66905 -15.36342,18.27859 -5.91651,2.85124 -7.48859,3.00141 -31.421,3.00141 h -19.5978 l -0.0906,-17.20729 -0.0906,-17.2073 -1.0431,-2.11827 c -1.91022,-3.87917 -5.4715,-6.19213 -9.5169,-6.18096 -1.93283,0.005 -2.51738,0.15572 -4.2627,1.09668 -2.25345,1.21491 -4.09789,3.11607 -5.22712,5.3879 l -0.75018,1.50924 -0.0905,17.36 -0.0905,17.36 -21.82949,-0.0421 c -12.00622,-0.0231 -22.78367,-0.15351 -23.94989,-0.28972 z M 307.26559,127.97428 C 299.34803,126.75337 294.08,121.63372 294.08,115.16007 c 0,-2.76798 0.18115,-2.84103 7.0312,-2.8357 3.08484,0.003 5.93117,0.0908 6.32518,0.19638 0.39401,0.1056 1.00855,0.66474 1.36564,1.24252 0.99122,1.60383 2.13466,2.2134 4.15798,2.21664 2.06141,0.003 4.4667,-1.02357 5.27027,-2.24996 0.54725,-0.83521 1.07132,-3.96995 0.6637,-3.96995 -0.12934,0 -0.6174,0.27192 -1.08457,0.60426 -1.55243,1.10439 -4.11035,1.63574 -7.8744,1.63574 -7.41618,0 -12.06422,-2.57394 -14.73541,-8.16 -1.42617,-2.98244 -1.75959,-5.07583 -1.75959,-11.04758 0,-7.467156 1.0228,-10.834341 4.38179,-14.425371 2.74444,-2.934032 6.89496,-4.436874 12.25821,-4.438519 3.3917,-9.6e-4 5.68213,0.49553 7.83456,1.698548 1.0464,0.584844 1.44544,0.686585 1.44544,0.368544 0,-0.241632 0.32004,-0.663495 0.7112,-0.937476 1.04186,-0.729753 10.97574,-0.729753 12.0176,0 L 332.8,75.556294 V 95.15092 c 0,16.57203 -0.0757,19.88513 -0.49053,21.4779 -1.39302,5.34816 -5.24349,8.98763 -11.35174,10.72969 -2.78629,0.79464 -10.33162,1.13397 -13.69214,0.61577 z m 7.90103,-28.95826 c 1.2711,-0.50859 2.56351,-2.01859 3.2155,-3.75685 0.59432,-1.58451 0.40152,-3.80581 -0.48469,-5.584185 C 315.10189,84.065059 307.52,86.340691 307.52,92.78967 c 0,4.94397 3.57544,7.85532 7.64662,6.22635 z m -233.274918,14.2531 c -2.756739,-0.38556 -6.300096,-1.5998 -8.540102,-2.92653 -2.90207,-1.71885 -5.873222,-4.85648 -7.218154,-7.62259 -2.102387,-4.32397 -2.279388,-5.50441 -2.279158,-15.199997 2.34e-4,-9.824337 0.179078,-11.101217 2.124438,-15.167735 1.781424,-3.723824 4.869917,-6.817245 8.61354,-8.627284 3.926076,-1.898252 6.321062,-2.387756 11.807734,-2.41335 5.589002,-0.02608 8.043296,0.486221 12.48,2.605002 6.46815,3.088909 10.56,9.07655 10.56,15.452541 0,2.162528 -0.32849,2.256371 -7.55284,2.157747 L 95.52,81.440003 94.56,79.461702 C 93.342336,76.952422 92.403347,75.94551 90.4,75.000777 87.217792,73.500121 83.319626,74.106694 80.943683,76.472223 78.826528,78.580102 78.56,79.797503 78.56,87.360003 c 0,7.562497 0.266528,8.779897 2.383683,10.887777 2.375943,2.36553 6.274109,2.9721 9.456317,1.47145 2.003347,-0.94473 2.942336,-1.95165 4.16,-4.46093 l 0.96,-1.9783 6.36716,-0.0869 c 5.58707,-0.0763 6.43978,-0.0212 6.96,0.4496 0.72622,0.65723 0.76379,2.29813 0.12196,5.32705 -0.64645,3.05074 -1.86259,5.13223 -4.6426,7.94607 -1.97994,2.00403 -2.94539,2.69384 -5.44652,3.89153 -1.672,0.80065 -4.013894,1.69174 -5.204208,1.98019 -2.608528,0.63214 -8.876253,0.88829 -11.78409,0.4816 z m 38.876878,-0.14455 c -3.91655,-0.85209 -6.75834,-2.99099 -8.24463,-6.2054 -0.57843,-1.25095 -0.68395,-2.07163 -0.68395,-5.31917 0,-4.36791 0.40031,-5.5203 2.72517,-7.84517 2.58245,-2.58245 6.76115,-4.122907 15.19103,-5.60011 2.63792,-0.462253 4.8439,-0.888148 4.90218,-0.946429 0.23726,-0.237264 -0.75413,-1.425635 -1.45619,-1.745517 -1.30691,-0.595466 -2.72925,-0.388522 -4.24219,0.617229 l -1.44,0.957261 -6.24,-0.0035 c -3.432,-0.0019 -6.456,-0.140439 -6.72,-0.30777 -0.7064,-0.447734 -0.55878,-3.403411 0.24906,-4.986912 0.77221,-1.513651 3.19361,-3.85344 5.19562,-5.020503 0.78943,-0.460195 2.58732,-1.239155 3.99532,-1.731027 2.39874,-0.837978 2.8926,-0.894726 7.84,-0.900915 4.57158,-0.0057 5.58232,0.08852 7.53329,0.702342 4.68376,1.473642 7.84875,4.381248 9.10524,8.364762 0.59919,1.899651 0.64147,2.913171 0.64147,15.375999 0,9.95067 -0.0976,13.43991 -0.384,13.72629 -0.27204,0.27204 -2.17803,0.384 -6.53714,0.384 -5.1671,0 -6.23373,-0.0806 -6.656,-0.50285 -0.27658,-0.27658 -0.50286,-0.69536 -0.50286,-0.93063 0,-0.29006 -0.69533,-0.0718 -2.16,0.67791 -3.25811,1.66778 -7.94154,2.14734 -12.11142,1.24013 z m 11.0285,-11.93553 c 0.7903,-0.4916 1.75414,-1.47934 2.21919,-2.27425 l 0.82212,-1.40521 -1.5792,0.21816 c -4.89967,0.67688 -7.01919,1.60558 -7.01919,3.07556 0,1.77892 2.98434,1.98608 5.55708,0.38574 z m 63.8515,11.93553 c -3.91655,-0.85209 -6.75834,-2.99099 -8.24463,-6.2054 -0.57843,-1.25095 -0.68395,-2.07163 -0.68395,-5.31917 0,-4.36791 0.40031,-5.5203 2.72517,-7.84517 2.58245,-2.58245 6.76115,-4.122907 15.19103,-5.60011 2.63792,-0.462253 4.8439,-0.888148 4.90218,-0.946429 0.23726,-0.237264 -0.75413,-1.425635 -1.45619,-1.745517 -1.30691,-0.595466 -2.72925,-0.388522 -4.24219,0.617229 l -1.44,0.957261 -6.24,-0.0035 c -3.432,-0.0019 -6.456,-0.140439 -6.72,-0.30777 -0.7064,-0.447734 -0.55878,-3.403411 0.24906,-4.986912 0.77221,-1.513651 3.19361,-3.85344 5.19562,-5.020503 0.78943,-0.460195 2.58732,-1.239155 3.99532,-1.731027 2.39874,-0.837978 2.8926,-0.894726 7.84,-0.900915 4.57158,-0.0057 5.58232,0.08852 7.53329,0.702342 4.68376,1.473642 7.84875,4.381248 9.10524,8.364762 C 223.95772,85.053392 224,86.066912 224,98.52974 c 0,9.95067 -0.0976,13.43991 -0.384,13.72629 -0.27204,0.27204 -2.17803,0.384 -6.53714,0.384 -5.1671,0 -6.23373,-0.0806 -6.656,-0.50285 -0.27658,-0.27658 -0.50286,-0.69536 -0.50286,-0.93063 0,-0.29006 -0.69533,-0.0718 -2.16,0.67791 -3.25811,1.66778 -7.94154,2.14734 -12.11142,1.24013 z m 11.0285,-11.93553 c 0.7903,-0.4916 1.75414,-1.47934 2.21919,-2.27425 l 0.82212,-1.40521 -1.5792,0.21816 c -4.89967,0.67688 -7.01919,1.60558 -7.01919,3.07556 0,1.77892 2.98434,1.98608 5.55708,0.38574 z M 266.4,113.41093 c -6.40116,-0.91585 -11.00223,-3.51765 -13.90324,-7.86195 -2.21598,-3.31846 -2.73607,-5.59429 -2.73065,-11.94898 0.004,-4.340759 0.12261,-5.827962 0.58847,-7.359997 1.60501,-5.278285 5.83931,-9.397501 11.56542,-11.251085 3.37359,-1.092058 9.65041,-1.38754 13.28,-0.625159 6.95938,1.461786 12.27418,6.249127 13.91002,12.52954 0.68455,2.628182 0.67417,11.019961 -0.017,13.700511 -1.51182,5.86365 -6.413,10.53616 -12.79559,12.19862 -1.89084,0.4925 -8.07647,0.87905 -9.89747,0.6185 z m 6.63655,-13.64558 c 1.76594,-1.34695 2.31232,-2.81301 2.29775,-6.16535 -0.0139,-3.20212 -0.41853,-4.33448 -2.03468,-5.694381 -2.06948,-1.741351 -4.51457,-1.863853 -6.84474,-0.342935 -1.71662,1.120452 -2.43905,2.864546 -2.44785,5.909566 -0.0105,3.64215 0.71938,5.26603 3.03297,6.7477 1.4363,0.91983 4.49899,0.68765 5.99655,-0.4546 z M 169.6,112.18145 c -3.62412,-1.01003 -6.7114,-3.40278 -8.21242,-6.3649 -1.34137,-2.64706 -1.69594,-5.20877 -1.70202,-12.29655 l -0.006,-6.479997 h -3.02186 c -4.07687,0 -4.01814,0.09225 -4.01814,-6.311204 0,-6.202403 -0.0227,-6.168797 4.16,-6.168797 h 2.88 v -5.934544 c 0,-7.968038 -0.4402,-7.505456 7.1423,-7.505456 5.15188,0 5.63488,0.04994 6.41454,0.663226 l 0.84316,0.663225 v 6.056775 6.056774 h 4.29677 c 4.29487,0 4.29708,3.2e-4 4.9815,0.870487 0.64362,0.818227 0.67864,1.165613 0.58323,5.786464 -0.0915,4.430301 -0.16287,4.960784 -0.72266,5.369514 -0.46231,0.337549 -1.71033,0.453536 -4.88,0.453536 H 174.08 v 5.716847 c 0,7.62276 -0.153,7.40315 5.15777,7.40315 3.64115,0 3.87031,0.039 4.61677,0.78546 0.76329,0.76329 0.78546,0.91932 0.78546,5.5288 0,6.64963 0.56699,6.17284 -7.29814,6.13713 -3.98663,-0.0181 -6.8309,-0.17606 -7.74186,-0.42994 z m 61.29814,-0.25265 C 230.45792,111.30029 230.4,108.39657 230.4,86.954256 V 62.690911 l 0.78546,-0.785453 c 0.77378,-0.773789 0.8682,-0.785456 6.35684,-0.785456 5.15188,0 5.63488,0.04994 6.41454,0.663226 L 244.8,62.446453 v 24.385572 c 0,21.552935 -0.0579,24.468185 -0.49814,25.096775 -0.48565,0.69335 -0.65388,0.7112 -6.70186,0.7112 -6.04798,0 -6.21621,-0.0178 -6.70186,-0.7112 z"
     id="path138"
     inkscape:connector-curvature="0" />
  <path
     style="fill:#000000;stroke-width:0.31999999"
     d=""
     id="path136"
     inkscape:connector-curvature="0" />
  <path
     style="fill:#000000;stroke-width:0.31999999"
     d=""
     id="path134"
     inkscape:connector-curvature="0" />
</svg>
