<?xml version="1.0" encoding="UTF-8" standalone="no"?>
<!-- Created with Inkscape (http://www.inkscape.org/) -->

<svg
   xmlns:dc="http://purl.org/dc/elements/1.1/"
   xmlns:cc="http://creativecommons.org/ns#"
   xmlns:rdf="http://www.w3.org/1999/02/22-rdf-syntax-ns#"
   xmlns:svg="http://www.w3.org/2000/svg"
   xmlns="http://www.w3.org/2000/svg"
   xmlns:sodipodi="http://sodipodi.sourceforge.net/DTD/sodipodi-0.dtd"
   xmlns:inkscape="http://www.inkscape.org/namespaces/inkscape"
   version="1.1"
   id="svg26"
   width="400"
   height="313.60001"
   viewBox="0 0 400 313.60001"
   sodipodi:docname="Custom_kits.svg"
   inkscape:version="0.92.4 (5da689c313, 2019-01-14)">
  <metadata
     id="metadata32">
    <rdf:RDF>
      <cc:Work
         rdf:about="">
        <dc:format>image/svg+xml</dc:format>
        <dc:type
           rdf:resource="http://purl.org/dc/dcmitype/StillImage" />
        <dc:title></dc:title>
      </cc:Work>
    </rdf:RDF>
  </metadata>
  <defs
     id="defs30" />
  <sodipodi:namedview
     pagecolor="#ffffff"
     bordercolor="#666666"
     borderopacity="1"
     objecttolerance="10"
     gridtolerance="10"
     guidetolerance="10"
     inkscape:pageopacity="0"
     inkscape:pageshadow="2"
     inkscape:window-width="1366"
     inkscape:window-height="705"
     id="namedview28"
     showgrid="false"
     inkscape:pagecheckerboard="true"
     inkscape:zoom="1.42"
     inkscape:cx="238.84905"
     inkscape:cy="187.49569"
     inkscape:window-x="-8"
     inkscape:window-y="-8"
     inkscape:window-maximized="1"
     inkscape:current-layer="svg26" />
  <path
     style="fill:#fefefe;stroke-width:0.31999999"
     d="m 235.72431,203.01266 c -4.17035,-1.00947 -7.98984,-3.59433 -9.25153,-6.26102 -0.63627,-1.34482 -0.74046,-4.43596 -0.16878,-5.00763 0.2697,-0.26971 2.06774,-0.384 6.04082,-0.384 4.74376,0 5.72394,0.0809 6.07269,0.5011 0.22873,0.2756 0.84425,0.72261 1.36781,0.99336 1.26119,0.65219 5.10493,0.47243 5.85099,-0.27363 0.47781,-0.47781 0.47056,-0.54393 -0.0927,-0.84536 -0.33606,-0.17985 -2.84695,-0.69289 -5.57977,-1.1401 -5.94796,-0.97335 -8.12988,-1.75143 -10.24557,-3.65361 -2.40026,-2.15805 -2.93818,-3.43585 -3.09792,-7.3589 -0.16425,-4.03371 0.29716,-5.48222 2.44974,-7.6905 1.65788,-1.70079 4.04371,-2.98479 6.91709,-3.72262 2.84488,-0.73052 9.63881,-0.6615 12.7309,0.12931 5.99992,1.53453 9.84187,5.07275 9.84187,9.06383 0,2.31224 -0.42915,2.47821 -6.3912,2.47166 -4.93085,-0.005 -4.98102,-0.0127 -6.5688,-0.95454 -1.69976,-1.00827 -4.06722,-1.28907 -5.30104,-0.62875 -1.47522,0.78952 -0.29811,1.29775 4.82104,2.08155 8.32977,1.27536 11.41525,2.92371 13.40166,7.15952 0.72048,1.53635 0.83822,2.21506 0.83746,4.82768 -6.4e-4,2.55337 -0.11812,3.25981 -0.73324,4.4132 -1.60776,3.01462 -5.21458,5.39161 -9.58725,6.31824 -2.82664,0.599 -10.77511,0.57585 -13.31432,-0.0388 z m -96.19305,-0.75162 C 139.31203,201.85141 139.2,194.12129 139.2,179.4039 c 0,-19.78986 0.0554,-22.29354 0.50286,-22.74104 0.41967,-0.41967 1.45006,-0.50286 6.22874,-0.50286 5.33351,0 5.74858,0.0424 6.05714,0.61897 0.20744,0.3876 0.33126,4.24362 0.33126,10.31628 v 9.69732 l 2.46815,-2.71628 c 1.35749,-1.49396 3.13983,-3.4032 3.96077,-4.24276 l 1.49261,-1.52648 6.83923,0.0865 6.83924,0.0865 0.0793,1.76 0.0793,1.76 -5.60986,6.20813 c -5.56792,6.16173 -5.60543,6.21317 -5.01738,6.88 0.32587,0.36953 2.9609,3.33587 5.85562,6.59187 2.89473,3.256 5.65686,6.39905 6.13808,6.98455 0.91805,1.11701 1.12785,2.50492 0.54367,3.59648 -0.3118,0.5826 -0.737,0.61897 -7.23697,0.61897 h -6.90571 l -1.25026,-1.36 c -0.68765,-0.748 -2.79502,-3.10732 -4.68304,-5.24292 l -3.43276,-3.88292 -0.16,4.84292 c -0.088,2.6636 -0.2765,5.02292 -0.41889,5.24292 -0.19166,0.29613 -1.78826,0.4 -6.14874,0.4 -5.49562,0 -5.91202,-0.0414 -6.22111,-0.61897 z m 39.04,0 c -0.2158,-0.40322 -0.33126,-6.25085 -0.33126,-16.77714 0,-14.26259 0.059,-16.21717 0.50286,-16.66104 0.41967,-0.41967 1.45006,-0.50285 6.22874,-0.50285 5.33351,0 5.74858,0.0424 6.05714,0.61896 0.21571,0.40305 0.33126,6.21478 0.33126,16.66104 0,10.44625 -0.11555,16.25798 -0.33126,16.66103 -0.30911,0.57758 -0.72558,0.61897 -6.22874,0.61897 -5.50316,0 -5.91963,-0.0414 -6.22874,-0.61897 z m 30.65638,0.005 c -3.53236,-1.12968 -6.06968,-3.43812 -7.36308,-6.6989 -0.65011,-1.63897 -0.728,-2.46938 -0.83729,-8.92707 l -0.1205,-7.12 h -2.78938 c -1.74286,0 -2.93346,-0.14407 -3.17339,-0.384 -0.5368,-0.5368 -0.5368,-9.8952 0,-10.432 0.24049,-0.24049 1.43644,-0.384 3.2,-0.384 h 2.816 v -5.46104 c 0,-3.15248 0.14004,-5.72269 0.33126,-6.08 0.30856,-0.57655 0.72363,-0.61896 6.05714,-0.61896 4.77868,0 5.80907,0.0832 6.22874,0.50286 0.41867,0.41867 0.50286,1.43653 0.50286,6.08 v 5.57715 h 3.97714 c 3.18892,0 4.07681,0.0997 4.48,0.50285 0.7404,0.7404 0.7404,9.45389 0,10.19429 -0.40319,0.40319 -1.29108,0.50286 -4.48,0.50286 H 214.08 v 4.94494 c 0,3.06762 0.14082,5.254 0.37092,5.75902 0.48533,1.06518 1.93395,1.45199 5.44622,1.45425 3.85138,0.002 3.78286,-0.099 3.78286,5.60179 0,3.74995 -0.0924,4.6867 -0.50286,5.09714 -0.78086,0.78086 -11.42551,0.69602 -13.9495,-0.11117 z m -30.65638,-36.80493 c -0.18308,-0.34208 -0.33126,-2.62217 -0.33126,-5.09714 0,-3.64441 0.0936,-4.57181 0.50286,-4.98104 0.41967,-0.41967 1.45006,-0.50286 6.22874,-0.50286 5.33351,0 5.74858,0.0424 6.05714,0.61897 0.18219,0.34043 0.33126,2.58189 0.33126,4.98104 0,2.39914 -0.14907,4.6406 -0.33126,4.98103 -0.30911,0.57758 -0.72558,0.61897 -6.22874,0.61897 -5.50316,0 -5.91963,-0.0414 -6.22874,-0.61897 z M 89.44391,127.16348 C 82.714426,125.53667 77.722109,120.64104 75.93887,113.92 75.233882,111.26289 75.137757,97.63431 75.80232,94.56 c 1.129174,-5.223616 4.723462,-9.887616 9.322534,-12.09705 3.513383,-1.687863 5.818432,-2.132717 11.079348,-2.138218 3.912358,-0.0041 4.907708,0.106125 7.359998,0.814979 5.56135,1.607546 9.84943,4.91226 11.96317,9.219709 0.91179,1.85807 1.09986,2.62956 1.21181,4.97106 0.10451,2.18599 0.0316,2.8554 -0.345,3.16796 -0.35037,0.29078 -2.04269,0.37303 -6.35584,0.30893 L 104.16,98.72 103.2,96.75091 c -1.24603,-2.55579 -1.60281,-2.94487 -3.52,-3.8387 -3.180547,-1.48283 -7.032925,-0.78302 -9.030573,1.64047 C 89.12152,96.4063 88.8,98.0487 88.8,104 c 0,5.9513 0.32152,7.5937 1.849427,9.44732 1.997648,2.4235 5.850026,3.12331 9.030573,1.64048 1.91719,-0.89383 2.27397,-1.28291 3.52,-3.8387 l 0.96,-1.9691 5.87834,-0.0874 c 4.31315,-0.0641 6.00547,0.0181 6.35584,0.30893 0.37661,0.31256 0.44951,0.98196 0.345,3.16795 -0.11171,2.33649 -0.3013,3.11698 -1.20754,4.97107 -2.14024,4.37877 -6.888,7.95388 -12.49164,9.40636 -2.99177,0.77547 -10.600531,0.84069 -13.59609,0.11653 z m 39.78373,-0.0856 c -2.31864,-0.75676 -3.75925,-1.65469 -5.18286,-3.23046 -3.02001,-3.34279 -3.40478,-5.55017 -3.40478,-19.53272 0,-9.41787 0.0655,-10.89452 0.50286,-11.33185 0.41967,-0.41967 1.45006,-0.50286 6.22874,-0.50286 5.33351,0 5.74858,0.0424 6.05714,0.61897 0.20544,0.38386 0.33194,3.99976 0.33305,9.52 9.6e-4,5.262 0.13995,9.3986 0.33975,10.11809 0.18588,0.66938 0.74926,1.67738 1.25196,2.24 0.84088,0.9411 1.07181,1.02294 2.8865,1.02294 1.80842,0 2.04739,-0.0838 2.87278,-1.00759 1.38125,-1.54588 1.60722,-3.37704 1.60722,-13.02416 0,-6.35575 0.10412,-8.82437 0.384,-9.10425 0.26981,-0.26981 2.07241,-0.384 6.06186,-0.384 5.50457,0 5.69305,0.0217 6.176,0.71121 0.43458,0.62046 0.49814,2.73434 0.49814,16.56879 0,13.83446 -0.0636,15.94834 -0.49814,16.5688 -0.48143,0.68733 -0.68006,0.7112 -5.91729,0.7112 -4.94839,0 -5.45163,-0.052 -5.79312,-0.59882 -0.36021,-0.5768 -0.4398,-0.56796 -2.16271,0.24 -1.61719,0.75838 -2.20304,0.84599 -6.10874,0.91353 -3.48262,0.0602 -4.6713,-0.04 -6.13236,-0.51682 z m 40.57667,0.0948 c -4.17035,-1.00947 -7.98984,-3.59433 -9.25153,-6.26102 -0.63627,-1.34482 -0.74046,-4.43596 -0.16878,-5.00764 0.2697,-0.2697 2.06774,-0.384 6.04082,-0.384 4.74376,0 5.72394,0.0809 6.07269,0.5011 0.22873,0.27561 0.84425,0.72262 1.36781,0.99337 1.26119,0.65218 5.10493,0.47243 5.85099,-0.27363 0.47781,-0.47781 0.47056,-0.54394 -0.0926,-0.84536 -0.33606,-0.17985 -2.84695,-0.6929 -5.57977,-1.14011 -5.94796,-0.97334 -8.12988,-1.75142 -10.24557,-3.65361 -2.40026,-2.15804 -2.93818,-3.43584 -3.09792,-7.3589 -0.16425,-4.0337 0.29716,-5.48222 2.44974,-7.6905 1.65788,-1.70078 4.04371,-2.98478 6.91709,-3.72261 2.84488,-0.73052 9.63881,-0.66151 12.7309,0.12931 5.99992,1.53453 9.84187,5.07275 9.84187,9.06383 0,2.31224 -0.42915,2.4782 -6.3912,2.47166 -4.93085,-0.005 -4.98102,-0.0127 -6.5688,-0.95455 -1.69976,-1.00826 -4.06722,-1.28906 -5.30104,-0.62874 -1.47522,0.78952 -0.29811,1.29775 4.82104,2.08154 8.32977,1.27537 11.41525,2.92372 13.40166,7.15953 0.72048,1.53635 0.83822,2.21506 0.83746,4.82767 -6.4e-4,2.55337 -0.11812,3.25982 -0.73324,4.41321 -1.60776,3.01462 -5.21458,5.39161 -9.58725,6.31824 -2.82664,0.599 -10.77511,0.57584 -13.31432,-0.0388 z m 68.68353,0.0148 c -3.95202,-1.06442 -8.12468,-4.05829 -9.91573,-7.11448 -1.6078,-2.7435 -2.01244,-4.81105 -2.00831,-10.26153 0.003,-3.21917 0.16072,-5.60087 0.44258,-6.65943 1.36647,-5.13211 5.86758,-9.3172 11.6254,-10.8092 2.63125,-0.68183 9.39172,-0.67936 12.04203,0.004 6.4371,1.66071 11.1521,6.66637 12.03108,12.77274 0.7682,5.33684 0.23612,10.40958 -1.45382,13.86034 -1.99829,4.0804 -5.66658,6.93918 -10.52935,8.20577 -2.44929,0.63796 -9.8673,0.63881 -12.23388,0.001 z m 8.45236,-11.55752 c 0.6143,-0.2915 1.50006,-1.10898 1.96836,-1.81663 0.75706,-1.14399 0.85144,-1.59328 0.85144,-4.05335 0,-2.46006 -0.0944,-2.90935 -0.85144,-4.05335 -2.13396,-3.22462 -6.91593,-3.06527 -8.62636,0.28745 -0.96489,1.89133 -0.96528,5.63971 -6.4e-4,7.53028 1.19475,2.34191 4.17492,3.28428 6.65878,2.10561 z m -37.39256,10.79599 c -3.53236,-1.12968 -6.06968,-3.43812 -7.36308,-6.6989 -0.65011,-1.63898 -0.728,-2.46938 -0.83729,-8.92707 l -0.1205,-7.12 h -2.78938 c -1.74286,0 -2.93346,-0.14407 -3.17339,-0.384 -0.5368,-0.53681 -0.5368,-9.8952 0,-10.432 0.24049,-0.24049 1.43644,-0.384 3.2,-0.384 h 2.816 v -5.46102 c 0,-3.152481 0.14004,-5.722695 0.33126,-6.080001 0.30856,-0.576547 0.72363,-0.618963 6.05714,-0.618963 4.77868,0 5.80907,0.08318 6.22874,0.502858 0.41867,0.418672 0.50286,1.436537 0.50286,6.08 V 92.48 h 3.97714 c 3.18892,0 4.07681,0.0997 4.48,0.50286 0.7404,0.74039 0.7404,9.45389 0,10.19429 -0.40319,0.40319 -1.29108,0.50285 -4.48,0.50285 H 214.4 v 4.94495 c 0,3.06762 0.14082,5.254 0.37092,5.75902 0.48533,1.06518 1.93395,1.45199 5.44622,1.45425 3.85138,0.002 3.78286,-0.099 3.78286,5.60178 0,3.74996 -0.0924,4.6867 -0.50286,5.09715 -0.78086,0.78085 -11.42551,0.69602 -13.9495,-0.11117 z m 57.98362,-0.005 C 267.31546,126.01782 267.2,120.17019 267.2,109.6439 c 0,-14.26259 0.059,-16.21717 0.50286,-16.66104 0.41859,-0.41859 1.43551,-0.50286 6.06874,-0.50286 5.232,0 5.58636,0.0383 5.90723,0.63781 0.335,0.62595 0.37238,0.62149 2.01126,-0.24 C 283.27187,92.04633 283.58838,92 287.68756,92 c 4.22396,0 4.37745,0.0246 6.41128,1.02622 1.14603,0.56442 2.42407,1.38852 2.84006,1.83133 l 0.75637,0.80511 1.13776,-0.99897 c 0.62577,-0.54944 1.93634,-1.37353 2.91237,-1.83133 C 303.39203,92.06002 303.84306,92 308,92 c 4.15694,0 4.60797,0.06 6.2546,0.83236 2.43171,1.14056 3.85914,2.47786 5.0702,4.75004 1.74867,3.28084 1.94346,5.00313 1.94963,17.23864 0.004,6.96839 -0.11549,11.20722 -0.32569,11.6 -0.30858,0.57662 -0.72378,0.61896 -6.06874,0.61896 -5.34498,0 -5.76014,-0.0423 -6.06874,-0.61896 -0.20624,-0.38535 -0.33193,-4.09917 -0.33305,-9.84 -9.6e-4,-5.30209 -0.141,-9.7223 -0.32936,-10.40047 -0.72433,-2.60792 -3.72305,-3.67605 -5.68519,-2.02503 -1.47712,1.24292 -1.66366,2.66099 -1.66366,12.6472 0,5.59152 -0.12544,9.23372 -0.33126,9.6183 -0.3086,0.57662 -0.72376,0.61896 -6.06874,0.61896 -5.34498,0 -5.76014,-0.0423 -6.06874,-0.61896 -0.20624,-0.38535 -0.33193,-4.09917 -0.33305,-9.84 -9.6e-4,-5.30209 -0.141,-9.7223 -0.32936,-10.40047 -1.02753,-3.69958 -5.99017,-3.69958 -7.0177,0 -0.18836,0.67817 -0.32834,5.09838 -0.32936,10.40047 -9.6e-4,5.74083 -0.12681,9.45465 -0.33305,9.84 -0.30911,0.57758 -0.72558,0.61896 -6.22874,0.61896 -5.50316,0 -5.91963,-0.0414 -6.22874,-0.61896 z"
     id="path36"
     inkscape:connector-curvature="0" />
</svg>
